<svg xmlns="http://www.w3.org/2000/svg" xmlns:xlink="http://www.w3.org/1999/xlink" x="0" y="0" width="662" height="385.32293701171875" style="
        width:662px;
        height:385.32293701171875px;
        background: #FFF;
        fill: none;
">
        <svg xmlns="http://www.w3.org/2000/svg"/>
        
        <svg xmlns="http://www.w3.org/2000/svg" class="role-diagram-draw-area"><g class="shapes-region" style="stroke: black; fill: none;"><g class="composite-shape" data-amt="diagram/shapes/plot" transform="matrix(1,0,0,1,190.5,283.3333282470703)"><g><g><g class="test-xgi"><line x1="34.231598024788035" y1="0" x2="34.231598024788035" y2="49" fill="none" stroke="#c3c3c3" stroke-width="0.5"/><line x1="49.63159802478803" y1="0" x2="49.63159802478803" y2="49" fill="none" stroke="#c3c3c3" stroke-width="0.5"/><line x1="65.03159802478802" y1="0" x2="65.03159802478802" y2="49" fill="none" stroke="#c3c3c3" stroke-width="0.5"/></g></g><g><rect class="real" x="21" y="1" width="58" height="47" style="fill: transparent; stroke: rgb(0, 0, 0); stroke-opacity: 1;"/><g class="test-plot-expression"><defs><clipPath id="cp0cfaysl22"><rect x="21" y="1" width="58" height="47"/></clipPath></defs><g clip-path="url(#cp0cfaysl22)"><path d=" M20.00,32.51 L20.50,32.45 L21.01,32.39 L21.51,32.32 L22.02,32.24 L22.52,32.15 L23.03,32.05 L23.53,31.95 L24.03,31.83 L24.54,31.70 L25.04,31.56 L25.55,31.41 L26.05,31.25 L26.55,31.07 L27.06,30.88 L27.56,30.67 L28.07,30.45 L28.57,30.22 L29.08,29.96 L29.58,29.69 L30.08,29.41 L30.59,29.11 L31.09,28.79 L31.60,28.45 L32.10,28.10 L32.61,27.73 L33.11,27.34 L33.61,26.94 L34.12,26.52 L34.62,26.09 L35.13,25.65 L35.63,25.19 L36.13,24.73 L36.64,24.25 L37.14,23.77 L37.65,23.28 L38.15,22.78 L38.66,22.29 L39.16,21.79 L39.66,21.29 L40.17,20.80 L40.67,20.32 L41.18,19.84 L41.68,19.37 L42.18,18.92 L42.69,18.49 L43.19,18.07 L43.70,17.67 L44.20,17.30 L44.71,16.95 L45.21,16.63 L45.71,16.34 L46.22,16.08 L46.72,15.85 L47.23,15.65 L47.73,15.50 L48.24,15.37 L48.74,15.29 L49.24,15.24 L49.75,15.23 L50.25,15.26 L50.76,15.32 L51.26,15.43 L51.76,15.56 L52.27,15.74 L52.77,15.95 L53.28,16.19 L53.78,16.47 L54.29,16.77 L54.79,17.11 L55.29,17.47 L55.80,17.85 L56.30,18.26 L56.81,18.69 L57.31,19.13 L57.82,19.59 L58.32,20.06 L58.82,20.54 L59.33,21.03 L59.83,21.52 L60.34,22.02 L60.84,22.51 L61.34,23.01 L61.85,23.50 L62.35,23.99 L62.86,24.47 L63.36,24.94 L63.87,25.41 L64.37,25.86 L64.87,26.29 L65.38,26.72 L65.88,27.13 L66.39,27.52 L66.89,27.90 L67.39,28.26 L67.90,28.61 L68.40,28.94 L68.91,29.25 L69.41,29.54 L69.92,29.82 L70.42,30.08 L70.92,30.33 L71.43,30.56 L71.93,30.77 L72.44,30.97 L72.94,31.15 L73.45,31.33 L73.95,31.48 L74.45,31.63 L74.96,31.76 L75.46,31.88 L75.97,32.00 L76.47,32.10 L76.97,32.19 L77.48,32.27 L77.98,32.35 L78.49,32.42 L78.99,32.48 L79.50,32.53 L80.00,32.58" style="stroke-width: 3; stroke: rgb(208, 2, 27); stroke-opacity: 1;"/></g></g><g class="test-xti" style="font-family: Asana-Math, Asana;"><line x1="20" y1="54" x2="77.75" y2="54" fill="none" stroke="rgb(0,0,0)" stroke-opacity="1" stroke-width="0.5"/><line x1="34.231598024788035" y1="54" x2="34.231598024788035" y2="58" fill="none" stroke="rgb(0,0,0)" stroke-opacity="1" stroke-width="0.5"/><line x1="49.63159802478803" y1="54" x2="49.63159802478803" y2="58" fill="none" stroke="rgb(0,0,0)" stroke-opacity="1" stroke-width="0.5"/><line x1="65.03159802478802" y1="54" x2="65.03159802478802" y2="58" fill="none" stroke="rgb(0,0,0)" stroke-opacity="1" stroke-width="0.5"/></g><g class="test-yti" style="font-family: Asana-Math, Asana;"><line x1="15" y1="2.25" x2="15" y2="49" fill="none" stroke="rgb(0,0,0)" stroke-opacity="1" stroke-width="0.5"/><line x1="11" y1="32.94687500000001" x2="15" y2="32.94687500000001" fill="none" stroke="rgb(0,0,0)" stroke-opacity="1" stroke-width="0.5"/></g><g class="test-xtl" style="font-family: &quot;Open Sans&quot;, verdana, arial, sans-serif;"><text text-anchor="middle" font-size="11" dominant-baseline="hanging" stroke="none" fill="rgb(128,128,128)" fill-opacity="1" x="34.231598024788035" y="61">0</text><text text-anchor="middle" font-size="11" dominant-baseline="hanging" stroke="none" fill="rgb(128,128,128)" fill-opacity="1" x="49.63159802478803" y="61">1</text><text text-anchor="middle" font-size="11" dominant-baseline="hanging" stroke="none" fill="rgb(128,128,128)" fill-opacity="1" x="65.03159802478802" y="61">2</text></g><g class="test-ytl" style="font-family: &quot;Open Sans&quot;, verdana, arial, sans-serif;"><text text-anchor="end" dominant-baseline="middle" font-size="11" stroke="none" fill="rgb(128,128,128)" fill-opacity="1" x="7" y="32.94687500000001">0</text></g></g></g></g><g class="composite-shape" data-amt="diagram/shapes/plot" transform="matrix(1,0,0,1,104.5,283.3333282470703)"><g><g><g class="test-xgi"><line x1="34.231598024788035" y1="0" x2="34.231598024788035" y2="49" fill="none" stroke="#c3c3c3" stroke-width="0.5"/><line x1="49.63159802478803" y1="0" x2="49.63159802478803" y2="49" fill="none" stroke="#c3c3c3" stroke-width="0.5"/><line x1="65.03159802478802" y1="0" x2="65.03159802478802" y2="49" fill="none" stroke="#c3c3c3" stroke-width="0.5"/></g></g><g><rect class="real" x="21" y="1" width="58" height="47" style="fill: transparent; stroke: rgb(0, 0, 0); stroke-opacity: 1;"/><g class="test-plot-expression"><defs><clipPath id="cpjplh5n50o"><rect x="21" y="1" width="58" height="47"/></clipPath></defs><g clip-path="url(#cpjplh5n50o)"><path d=" M20.00,30.62 L20.50,30.39 L21.01,30.15 L21.51,29.89 L22.02,29.62 L22.52,29.33 L23.03,29.02 L23.53,28.70 L24.03,28.36 L24.54,28.00 L25.04,27.63 L25.55,27.23 L26.05,26.83 L26.55,26.41 L27.06,25.97 L27.56,25.53 L28.07,25.07 L28.57,24.60 L29.08,24.12 L29.58,23.63 L30.08,23.14 L30.59,22.65 L31.09,22.15 L31.60,21.65 L32.10,21.16 L32.61,20.67 L33.11,20.19 L33.61,19.71 L34.12,19.25 L34.62,18.80 L35.13,18.37 L35.63,17.96 L36.13,17.57 L36.64,17.20 L37.14,16.86 L37.65,16.55 L38.15,16.26 L38.66,16.01 L39.16,15.79 L39.66,15.61 L40.17,15.46 L40.67,15.35 L41.18,15.27 L41.68,15.23 L42.18,15.23 L42.69,15.27 L43.19,15.35 L43.70,15.46 L44.20,15.61 L44.71,15.79 L45.21,16.01 L45.71,16.27 L46.22,16.55 L46.72,16.86 L47.23,17.20 L47.73,17.57 L48.24,17.96 L48.74,18.37 L49.24,18.80 L49.75,19.25 L50.25,19.71 L50.76,20.19 L51.26,20.67 L51.76,21.16 L52.27,21.66 L52.77,22.15 L53.28,22.65 L53.78,23.15 L54.29,23.64 L54.79,24.12 L55.29,24.60 L55.80,25.07 L56.30,25.53 L56.81,25.98 L57.31,26.41 L57.82,26.83 L58.32,27.24 L58.82,27.63 L59.33,28.00 L59.83,28.36 L60.34,28.70 L60.84,29.02 L61.34,29.33 L61.85,29.62 L62.35,29.89 L62.86,30.15 L63.36,30.39 L63.87,30.62 L64.37,30.83 L64.87,31.02 L65.38,31.20 L65.88,31.37 L66.39,31.52 L66.89,31.67 L67.39,31.80 L67.90,31.92 L68.40,32.02 L68.91,32.12 L69.41,32.21 L69.92,32.29 L70.42,32.37 L70.92,32.44 L71.43,32.49 L71.93,32.55 L72.44,32.60 L72.94,32.64 L73.45,32.68 L73.95,32.71 L74.45,32.74 L74.96,32.77 L75.46,32.79 L75.97,32.81 L76.47,32.83 L76.97,32.85 L77.48,32.86 L77.98,32.87 L78.49,32.88 L78.99,32.89 L79.50,32.90 L80.00,32.91" style="stroke-width: 3; stroke: rgb(208, 2, 27); stroke-opacity: 1;"/></g></g><g class="test-xti" style="font-family: Asana-Math, Asana;"><line x1="20" y1="54" x2="77.75" y2="54" fill="none" stroke="rgb(0,0,0)" stroke-opacity="1" stroke-width="0.5"/><line x1="34.231598024788035" y1="54" x2="34.231598024788035" y2="58" fill="none" stroke="rgb(0,0,0)" stroke-opacity="1" stroke-width="0.5"/><line x1="49.63159802478803" y1="54" x2="49.63159802478803" y2="58" fill="none" stroke="rgb(0,0,0)" stroke-opacity="1" stroke-width="0.5"/><line x1="65.03159802478802" y1="54" x2="65.03159802478802" y2="58" fill="none" stroke="rgb(0,0,0)" stroke-opacity="1" stroke-width="0.5"/></g><g class="test-yti" style="font-family: Asana-Math, Asana;"><line x1="15" y1="2.25" x2="15" y2="49" fill="none" stroke="rgb(0,0,0)" stroke-opacity="1" stroke-width="0.5"/><line x1="11" y1="32.94687500000001" x2="15" y2="32.94687500000001" fill="none" stroke="rgb(0,0,0)" stroke-opacity="1" stroke-width="0.5"/></g><g class="test-xtl" style="font-family: &quot;Open Sans&quot;, verdana, arial, sans-serif;"><text text-anchor="middle" font-size="11" dominant-baseline="hanging" stroke="none" fill="rgb(128,128,128)" fill-opacity="1" x="34.231598024788035" y="61">0</text><text text-anchor="middle" font-size="11" dominant-baseline="hanging" stroke="none" fill="rgb(128,128,128)" fill-opacity="1" x="49.63159802478803" y="61">1</text><text text-anchor="middle" font-size="11" dominant-baseline="hanging" stroke="none" fill="rgb(128,128,128)" fill-opacity="1" x="65.03159802478802" y="61">2</text></g><g class="test-ytl" style="font-family: &quot;Open Sans&quot;, verdana, arial, sans-serif;"><text text-anchor="end" dominant-baseline="middle" font-size="11" stroke="none" fill="rgb(128,128,128)" fill-opacity="1" x="7" y="32.94687500000001">0</text></g></g></g></g><g class="composite-shape" data-amt="diagram/shapes/plot" transform="matrix(1,0,0,1,23.5,282.33038330078125)"><g><g><g class="test-xgi"><line x1="34.231598024788035" y1="0" x2="34.231598024788035" y2="49" fill="none" stroke="#c3c3c3" stroke-width="0.5"/><line x1="49.63159802478803" y1="0" x2="49.63159802478803" y2="49" fill="none" stroke="#c3c3c3" stroke-width="0.5"/><line x1="65.03159802478802" y1="0" x2="65.03159802478802" y2="49" fill="none" stroke="#c3c3c3" stroke-width="0.5"/></g></g><g><rect class="real" x="21" y="1" width="58" height="47" style="fill: transparent; stroke: rgb(0, 0, 0); stroke-opacity: 1;"/><g class="test-plot-expression"><defs><clipPath id="cpiocw3url0"><rect x="21" y="1" width="58" height="47"/></clipPath></defs><g clip-path="url(#cpiocw3url0)"><path d=" M20.00,25.40 L20.50,24.94 L21.01,24.47 L21.51,23.99 L22.02,23.50 L22.52,23.01 L23.03,22.51 L23.53,22.02 L24.03,21.52 L24.54,21.02 L25.04,20.54 L25.55,20.06 L26.05,19.59 L26.55,19.13 L27.06,18.68 L27.56,18.26 L28.07,17.85 L28.57,17.47 L29.08,17.11 L29.58,16.77 L30.08,16.47 L30.59,16.19 L31.09,15.95 L31.60,15.74 L32.10,15.56 L32.61,15.42 L33.11,15.32 L33.61,15.26 L34.12,15.23 L34.62,15.24 L35.13,15.29 L35.63,15.37 L36.13,15.50 L36.64,15.66 L37.14,15.85 L37.65,16.08 L38.15,16.34 L38.66,16.63 L39.16,16.95 L39.66,17.30 L40.17,17.67 L40.67,18.07 L41.18,18.49 L41.68,18.92 L42.18,19.38 L42.69,19.84 L43.19,20.32 L43.70,20.80 L44.20,21.29 L44.71,21.79 L45.21,22.29 L45.71,22.78 L46.22,23.28 L46.72,23.77 L47.23,24.25 L47.73,24.73 L48.24,25.20 L48.74,25.65 L49.24,26.10 L49.75,26.53 L50.25,26.94 L50.76,27.34 L51.26,27.73 L51.76,28.10 L52.27,28.45 L52.77,28.79 L53.28,29.11 L53.78,29.41 L54.29,29.70 L54.79,29.97 L55.29,30.22 L55.80,30.45 L56.30,30.67 L56.81,30.88 L57.31,31.07 L57.82,31.25 L58.32,31.41 L58.82,31.56 L59.33,31.70 L59.83,31.83 L60.34,31.95 L60.84,32.05 L61.34,32.15 L61.85,32.24 L62.35,32.32 L62.86,32.39 L63.36,32.45 L63.87,32.51 L64.37,32.56 L64.87,32.61 L65.38,32.65 L65.88,32.69 L66.39,32.72 L66.89,32.75 L67.39,32.78 L67.90,32.80 L68.40,32.82 L68.91,32.84 L69.41,32.85 L69.92,32.86 L70.42,32.88 L70.92,32.89 L71.43,32.90 L71.93,32.90 L72.44,32.91 L72.94,32.91 L73.45,32.92 L73.95,32.92 L74.45,32.93 L74.96,32.93 L75.46,32.93 L75.97,32.94 L76.47,32.94 L76.97,32.94 L77.48,32.94 L77.98,32.94 L78.49,32.94 L78.99,32.94 L79.50,32.94 L80.00,32.94" style="stroke-width: 3; stroke: rgb(208, 2, 27); stroke-opacity: 1;"/></g></g><g class="test-xti" style="font-family: Asana-Math, Asana;"><line x1="20" y1="54" x2="77.75" y2="54" fill="none" stroke="rgb(0,0,0)" stroke-opacity="1" stroke-width="0.5"/><line x1="34.231598024788035" y1="54" x2="34.231598024788035" y2="58" fill="none" stroke="rgb(0,0,0)" stroke-opacity="1" stroke-width="0.5"/><line x1="49.63159802478803" y1="54" x2="49.63159802478803" y2="58" fill="none" stroke="rgb(0,0,0)" stroke-opacity="1" stroke-width="0.5"/><line x1="65.03159802478802" y1="54" x2="65.03159802478802" y2="58" fill="none" stroke="rgb(0,0,0)" stroke-opacity="1" stroke-width="0.5"/></g><g class="test-yti" style="font-family: Asana-Math, Asana;"><line x1="15" y1="2.25" x2="15" y2="49" fill="none" stroke="rgb(0,0,0)" stroke-opacity="1" stroke-width="0.5"/><line x1="11" y1="32.94687500000001" x2="15" y2="32.94687500000001" fill="none" stroke="rgb(0,0,0)" stroke-opacity="1" stroke-width="0.5"/></g><g class="test-xtl" style="font-family: &quot;Open Sans&quot;, verdana, arial, sans-serif;"><text text-anchor="middle" font-size="11" dominant-baseline="hanging" stroke="none" fill="rgb(128,128,128)" fill-opacity="1" x="34.231598024788035" y="61">0</text><text text-anchor="middle" font-size="11" dominant-baseline="hanging" stroke="none" fill="rgb(128,128,128)" fill-opacity="1" x="49.63159802478803" y="61">1</text><text text-anchor="middle" font-size="11" dominant-baseline="hanging" stroke="none" fill="rgb(128,128,128)" fill-opacity="1" x="65.03159802478802" y="61">2</text></g><g class="test-ytl" style="font-family: &quot;Open Sans&quot;, verdana, arial, sans-serif;"><text text-anchor="end" dominant-baseline="middle" font-size="11" stroke="none" fill="rgb(128,128,128)" fill-opacity="1" x="7" y="32.94687500000001">0</text></g></g></g></g><g class="composite-shape" data-amt="diagram/shapes/plot" transform="matrix(1,0,0,1,387.5,284.33038330078125)"><g><g><g class="test-xgi"><line x1="34.231598024788035" y1="0" x2="34.231598024788035" y2="49" fill="none" stroke="#c3c3c3" stroke-width="0.5"/><line x1="49.63159802478803" y1="0" x2="49.63159802478803" y2="49" fill="none" stroke="#c3c3c3" stroke-width="0.5"/><line x1="65.03159802478802" y1="0" x2="65.03159802478802" y2="49" fill="none" stroke="#c3c3c3" stroke-width="0.5"/></g></g><g><rect class="real" x="21" y="1" width="58" height="47" style="fill: transparent; stroke: rgb(0, 0, 0); stroke-opacity: 1;"/><g class="test-plot-expression"><defs><clipPath id="cpira6e6b07"><rect x="21" y="1" width="58" height="47"/></clipPath></defs><g clip-path="url(#cpira6e6b07)"><path d=" M20.00,32.51 L20.50,32.45 L21.01,32.39 L21.51,32.32 L22.02,32.24 L22.52,32.15 L23.03,32.05 L23.53,31.95 L24.03,31.83 L24.54,31.70 L25.04,31.56 L25.55,31.41 L26.05,31.25 L26.55,31.07 L27.06,30.88 L27.56,30.67 L28.07,30.45 L28.57,30.22 L29.08,29.96 L29.58,29.69 L30.08,29.41 L30.59,29.11 L31.09,28.79 L31.60,28.45 L32.10,28.10 L32.61,27.73 L33.11,27.34 L33.61,26.94 L34.12,26.52 L34.62,26.09 L35.13,25.65 L35.63,25.19 L36.13,24.73 L36.64,24.25 L37.14,23.77 L37.65,23.28 L38.15,22.78 L38.66,22.29 L39.16,21.79 L39.66,21.29 L40.17,20.80 L40.67,20.32 L41.18,19.84 L41.68,19.37 L42.18,18.92 L42.69,18.49 L43.19,18.07 L43.70,17.67 L44.20,17.30 L44.71,16.95 L45.21,16.63 L45.71,16.34 L46.22,16.08 L46.72,15.85 L47.23,15.65 L47.73,15.50 L48.24,15.37 L48.74,15.29 L49.24,15.24 L49.75,15.23 L50.25,15.26 L50.76,15.32 L51.26,15.43 L51.76,15.56 L52.27,15.74 L52.77,15.95 L53.28,16.19 L53.78,16.47 L54.29,16.77 L54.79,17.11 L55.29,17.47 L55.80,17.85 L56.30,18.26 L56.81,18.69 L57.31,19.13 L57.82,19.59 L58.32,20.06 L58.82,20.54 L59.33,21.03 L59.83,21.52 L60.34,22.02 L60.84,22.51 L61.34,23.01 L61.85,23.50 L62.35,23.99 L62.86,24.47 L63.36,24.94 L63.87,25.41 L64.37,25.86 L64.87,26.29 L65.38,26.72 L65.88,27.13 L66.39,27.52 L66.89,27.90 L67.39,28.26 L67.90,28.61 L68.40,28.94 L68.91,29.25 L69.41,29.54 L69.92,29.82 L70.42,30.08 L70.92,30.33 L71.43,30.56 L71.93,30.77 L72.44,30.97 L72.94,31.15 L73.45,31.33 L73.95,31.48 L74.45,31.63 L74.96,31.76 L75.46,31.88 L75.97,32.00 L76.47,32.10 L76.97,32.19 L77.48,32.27 L77.98,32.35 L78.49,32.42 L78.99,32.48 L79.50,32.53 L80.00,32.58" style="stroke-width: 3; stroke: rgb(74, 144, 226); stroke-opacity: 1;"/></g></g><g class="test-xti" style="font-family: Asana-Math, Asana;"><line x1="20" y1="54" x2="77.75" y2="54" fill="none" stroke="rgb(0,0,0)" stroke-opacity="1" stroke-width="0.5"/><line x1="34.231598024788035" y1="54" x2="34.231598024788035" y2="58" fill="none" stroke="rgb(0,0,0)" stroke-opacity="1" stroke-width="0.5"/><line x1="49.63159802478803" y1="54" x2="49.63159802478803" y2="58" fill="none" stroke="rgb(0,0,0)" stroke-opacity="1" stroke-width="0.5"/><line x1="65.03159802478802" y1="54" x2="65.03159802478802" y2="58" fill="none" stroke="rgb(0,0,0)" stroke-opacity="1" stroke-width="0.5"/></g><g class="test-yti" style="font-family: Asana-Math, Asana;"><line x1="15" y1="2.25" x2="15" y2="49" fill="none" stroke="rgb(0,0,0)" stroke-opacity="1" stroke-width="0.5"/><line x1="11" y1="32.94687500000001" x2="15" y2="32.94687500000001" fill="none" stroke="rgb(0,0,0)" stroke-opacity="1" stroke-width="0.5"/></g><g class="test-xtl" style="font-family: &quot;Open Sans&quot;, verdana, arial, sans-serif;"><text text-anchor="middle" font-size="11" dominant-baseline="hanging" stroke="none" fill="rgb(128,128,128)" fill-opacity="1" x="34.231598024788035" y="61">0</text><text text-anchor="middle" font-size="11" dominant-baseline="hanging" stroke="none" fill="rgb(128,128,128)" fill-opacity="1" x="49.63159802478803" y="61">1</text><text text-anchor="middle" font-size="11" dominant-baseline="hanging" stroke="none" fill="rgb(128,128,128)" fill-opacity="1" x="65.03159802478802" y="61">2</text></g><g class="test-ytl" style="font-family: &quot;Open Sans&quot;, verdana, arial, sans-serif;"><text text-anchor="end" dominant-baseline="middle" font-size="11" stroke="none" fill="rgb(128,128,128)" fill-opacity="1" x="7" y="32.94687500000001">0</text></g></g></g></g><g class="composite-shape" data-amt="diagram/shapes/plot" transform="matrix(1,0,0,1,486.5,286.33038330078125)"><g><g><g class="test-xgi"><line x1="34.231598024788035" y1="0" x2="34.231598024788035" y2="49" fill="none" stroke="#c3c3c3" stroke-width="0.5"/><line x1="49.63159802478803" y1="0" x2="49.63159802478803" y2="49" fill="none" stroke="#c3c3c3" stroke-width="0.5"/><line x1="65.03159802478802" y1="0" x2="65.03159802478802" y2="49" fill="none" stroke="#c3c3c3" stroke-width="0.5"/></g></g><g><rect class="real" x="21" y="1" width="58" height="47" style="fill: transparent; stroke: rgb(0, 0, 0); stroke-opacity: 1;"/><g class="test-plot-expression"><defs><clipPath id="cpy6y5v09ux"><rect x="21" y="1" width="58" height="47"/></clipPath></defs><g clip-path="url(#cpy6y5v09ux)"><path d=" M20.00,30.62 L20.50,30.39 L21.01,30.15 L21.51,29.89 L22.02,29.62 L22.52,29.33 L23.03,29.02 L23.53,28.70 L24.03,28.36 L24.54,28.00 L25.04,27.63 L25.55,27.23 L26.05,26.83 L26.55,26.41 L27.06,25.97 L27.56,25.53 L28.07,25.07 L28.57,24.60 L29.08,24.12 L29.58,23.63 L30.08,23.14 L30.59,22.65 L31.09,22.15 L31.60,21.65 L32.10,21.16 L32.61,20.67 L33.11,20.19 L33.61,19.71 L34.12,19.25 L34.62,18.80 L35.13,18.37 L35.63,17.96 L36.13,17.57 L36.64,17.20 L37.14,16.86 L37.65,16.55 L38.15,16.26 L38.66,16.01 L39.16,15.79 L39.66,15.61 L40.17,15.46 L40.67,15.35 L41.18,15.27 L41.68,15.23 L42.18,15.23 L42.69,15.27 L43.19,15.35 L43.70,15.46 L44.20,15.61 L44.71,15.79 L45.21,16.01 L45.71,16.27 L46.22,16.55 L46.72,16.86 L47.23,17.20 L47.73,17.57 L48.24,17.96 L48.74,18.37 L49.24,18.80 L49.75,19.25 L50.25,19.71 L50.76,20.19 L51.26,20.67 L51.76,21.16 L52.27,21.66 L52.77,22.15 L53.28,22.65 L53.78,23.15 L54.29,23.64 L54.79,24.12 L55.29,24.60 L55.80,25.07 L56.30,25.53 L56.81,25.98 L57.31,26.41 L57.82,26.83 L58.32,27.24 L58.82,27.63 L59.33,28.00 L59.83,28.36 L60.34,28.70 L60.84,29.02 L61.34,29.33 L61.85,29.62 L62.35,29.89 L62.86,30.15 L63.36,30.39 L63.87,30.62 L64.37,30.83 L64.87,31.02 L65.38,31.20 L65.88,31.37 L66.39,31.52 L66.89,31.67 L67.39,31.80 L67.90,31.92 L68.40,32.02 L68.91,32.12 L69.41,32.21 L69.92,32.29 L70.42,32.37 L70.92,32.44 L71.43,32.49 L71.93,32.55 L72.44,32.60 L72.94,32.64 L73.45,32.68 L73.95,32.71 L74.45,32.74 L74.96,32.77 L75.46,32.79 L75.97,32.81 L76.47,32.83 L76.97,32.85 L77.48,32.86 L77.98,32.87 L78.49,32.88 L78.99,32.89 L79.50,32.90 L80.00,32.91" style="stroke-width: 3; stroke: rgb(74, 144, 226); stroke-opacity: 1;"/></g></g><g class="test-xti" style="font-family: Asana-Math, Asana;"><line x1="20" y1="54" x2="77.75" y2="54" fill="none" stroke="rgb(0,0,0)" stroke-opacity="1" stroke-width="0.5"/><line x1="34.231598024788035" y1="54" x2="34.231598024788035" y2="58" fill="none" stroke="rgb(0,0,0)" stroke-opacity="1" stroke-width="0.5"/><line x1="49.63159802478803" y1="54" x2="49.63159802478803" y2="58" fill="none" stroke="rgb(0,0,0)" stroke-opacity="1" stroke-width="0.5"/><line x1="65.03159802478802" y1="54" x2="65.03159802478802" y2="58" fill="none" stroke="rgb(0,0,0)" stroke-opacity="1" stroke-width="0.5"/></g><g class="test-yti" style="font-family: Asana-Math, Asana;"><line x1="15" y1="2.25" x2="15" y2="49" fill="none" stroke="rgb(0,0,0)" stroke-opacity="1" stroke-width="0.5"/><line x1="11" y1="32.94687500000001" x2="15" y2="32.94687500000001" fill="none" stroke="rgb(0,0,0)" stroke-opacity="1" stroke-width="0.5"/></g><g class="test-xtl" style="font-family: &quot;Open Sans&quot;, verdana, arial, sans-serif;"><text text-anchor="middle" font-size="11" dominant-baseline="hanging" stroke="none" fill="rgb(128,128,128)" fill-opacity="1" x="34.231598024788035" y="61">0</text><text text-anchor="middle" font-size="11" dominant-baseline="hanging" stroke="none" fill="rgb(128,128,128)" fill-opacity="1" x="49.63159802478803" y="61">1</text><text text-anchor="middle" font-size="11" dominant-baseline="hanging" stroke="none" fill="rgb(128,128,128)" fill-opacity="1" x="65.03159802478802" y="61">2</text></g><g class="test-ytl" style="font-family: &quot;Open Sans&quot;, verdana, arial, sans-serif;"><text text-anchor="end" dominant-baseline="middle" font-size="11" stroke="none" fill="rgb(128,128,128)" fill-opacity="1" x="7" y="32.94687500000001">0</text></g></g></g></g><g class="composite-shape" data-amt="diagram/shapes/plot" transform="matrix(1,0,0,1,297.5,284.3274383544922)"><g><g><g class="test-xgi"><line x1="34.231598024788035" y1="0" x2="34.231598024788035" y2="49" fill="none" stroke="#c3c3c3" stroke-width="0.5"/><line x1="49.63159802478803" y1="0" x2="49.63159802478803" y2="49" fill="none" stroke="#c3c3c3" stroke-width="0.5"/><line x1="65.03159802478802" y1="0" x2="65.03159802478802" y2="49" fill="none" stroke="#c3c3c3" stroke-width="0.5"/></g></g><g><rect class="real" x="21" y="1" width="58" height="47" style="fill: transparent; stroke: rgb(0, 0, 0); stroke-opacity: 1;"/><g class="test-plot-expression"><defs><clipPath id="cp74ujwadx6"><rect x="21" y="1" width="58" height="47"/></clipPath></defs><g clip-path="url(#cp74ujwadx6)"><path d=" M20.00,25.40 L20.50,24.94 L21.01,24.47 L21.51,23.99 L22.02,23.50 L22.52,23.01 L23.03,22.51 L23.53,22.02 L24.03,21.52 L24.54,21.02 L25.04,20.54 L25.55,20.06 L26.05,19.59 L26.55,19.13 L27.06,18.68 L27.56,18.26 L28.07,17.85 L28.57,17.47 L29.08,17.11 L29.58,16.77 L30.08,16.47 L30.59,16.19 L31.09,15.95 L31.60,15.74 L32.10,15.56 L32.61,15.42 L33.11,15.32 L33.61,15.26 L34.12,15.23 L34.62,15.24 L35.13,15.29 L35.63,15.37 L36.13,15.50 L36.64,15.66 L37.14,15.85 L37.65,16.08 L38.15,16.34 L38.66,16.63 L39.16,16.95 L39.66,17.30 L40.17,17.67 L40.67,18.07 L41.18,18.49 L41.68,18.92 L42.18,19.38 L42.69,19.84 L43.19,20.32 L43.70,20.80 L44.20,21.29 L44.71,21.79 L45.21,22.29 L45.71,22.78 L46.22,23.28 L46.72,23.77 L47.23,24.25 L47.73,24.73 L48.24,25.20 L48.74,25.65 L49.24,26.10 L49.75,26.53 L50.25,26.94 L50.76,27.34 L51.26,27.73 L51.76,28.10 L52.27,28.45 L52.77,28.79 L53.28,29.11 L53.78,29.41 L54.29,29.70 L54.79,29.97 L55.29,30.22 L55.80,30.45 L56.30,30.67 L56.81,30.88 L57.31,31.07 L57.82,31.25 L58.32,31.41 L58.82,31.56 L59.33,31.70 L59.83,31.83 L60.34,31.95 L60.84,32.05 L61.34,32.15 L61.85,32.24 L62.35,32.32 L62.86,32.39 L63.36,32.45 L63.87,32.51 L64.37,32.56 L64.87,32.61 L65.38,32.65 L65.88,32.69 L66.39,32.72 L66.89,32.75 L67.39,32.78 L67.90,32.80 L68.40,32.82 L68.91,32.84 L69.41,32.85 L69.92,32.86 L70.42,32.88 L70.92,32.89 L71.43,32.90 L71.93,32.90 L72.44,32.91 L72.94,32.91 L73.45,32.92 L73.95,32.92 L74.45,32.93 L74.96,32.93 L75.46,32.93 L75.97,32.94 L76.47,32.94 L76.97,32.94 L77.48,32.94 L77.98,32.94 L78.49,32.94 L78.99,32.94 L79.50,32.94 L80.00,32.94" style="stroke-width: 3; stroke: rgb(74, 144, 226); stroke-opacity: 1;"/></g></g><g class="test-xti" style="font-family: Asana-Math, Asana;"><line x1="20" y1="54" x2="77.75" y2="54" fill="none" stroke="rgb(0,0,0)" stroke-opacity="1" stroke-width="0.5"/><line x1="34.231598024788035" y1="54" x2="34.231598024788035" y2="58" fill="none" stroke="rgb(0,0,0)" stroke-opacity="1" stroke-width="0.5"/><line x1="49.63159802478803" y1="54" x2="49.63159802478803" y2="58" fill="none" stroke="rgb(0,0,0)" stroke-opacity="1" stroke-width="0.5"/><line x1="65.03159802478802" y1="54" x2="65.03159802478802" y2="58" fill="none" stroke="rgb(0,0,0)" stroke-opacity="1" stroke-width="0.5"/></g><g class="test-yti" style="font-family: Asana-Math, Asana;"><line x1="15" y1="2.25" x2="15" y2="49" fill="none" stroke="rgb(0,0,0)" stroke-opacity="1" stroke-width="0.5"/><line x1="11" y1="32.94687500000001" x2="15" y2="32.94687500000001" fill="none" stroke="rgb(0,0,0)" stroke-opacity="1" stroke-width="0.5"/></g><g class="test-xtl" style="font-family: &quot;Open Sans&quot;, verdana, arial, sans-serif;"><text text-anchor="middle" font-size="11" dominant-baseline="hanging" stroke="none" fill="rgb(128,128,128)" fill-opacity="1" x="34.231598024788035" y="61">0</text><text text-anchor="middle" font-size="11" dominant-baseline="hanging" stroke="none" fill="rgb(128,128,128)" fill-opacity="1" x="49.63159802478803" y="61">1</text><text text-anchor="middle" font-size="11" dominant-baseline="hanging" stroke="none" fill="rgb(128,128,128)" fill-opacity="1" x="65.03159802478802" y="61">2</text></g><g class="test-ytl" style="font-family: &quot;Open Sans&quot;, verdana, arial, sans-serif;"><text text-anchor="end" dominant-baseline="middle" font-size="11" stroke="none" fill="rgb(128,128,128)" fill-opacity="1" x="7" y="32.94687500000001">0</text></g></g></g></g><g class="arrow-line"><path class="connection real" stroke-dasharray="" d="  M171,177.58 C161,218.33 351,253.33 349,284.33" style="stroke: rgb(0, 0, 0); stroke-width: 1; fill: none; fill-opacity: 1;"/></g><g class="arrow-line"><path class="connection real" stroke-dasharray="" d="  M171,177.58 C161,218.33 75,251.33 73,282.33" style="stroke: rgb(0, 0, 0); stroke-width: 1; fill: none; fill-opacity: 1;"/></g><g class="arrow-line"><path class="connection real" stroke-dasharray="" d="  M208,176.58 C198,217.33 156,252.33 154,283.33" style="stroke: rgb(0, 0, 0); stroke-width: 1; fill: none; fill-opacity: 1;"/></g><g class="arrow-line"><path class="connection real" stroke-dasharray="" d="  M208,176.58 C198,217.33 351,253.33 349,284.33" style="stroke: rgb(0, 0, 0); stroke-width: 1; fill: none; fill-opacity: 1;"/></g><g class="arrow-line"><path class="connection real" stroke-dasharray="" d="  M245,177.58 C235,218.33 242,252.33 240,283.33" style="stroke: rgb(0, 0, 0); stroke-width: 1; fill: none; fill-opacity: 1;"/></g><g class="arrow-line"><path class="connection real" stroke-dasharray="" d="  M245,177.58 C235,218.33 351,253.33 349,284.33" style="stroke: rgb(0, 0, 0); stroke-width: 1; fill: none; fill-opacity: 1;"/></g><g class="arrow-line"><path class="connection real" stroke-dasharray="" d="  M299.67,177.58 C274.67,222.33 91.67,229.33 73,282.33" style="stroke: rgb(0, 0, 0); stroke-width: 1; fill: none; fill-opacity: 1;"/></g><g class="arrow-line"><path class="connection real" stroke-dasharray="" d="  M299.67,177.58 C274.67,222.33 439.33,232.33 436.67,284.33" style="stroke: rgb(0, 0, 0); stroke-width: 1; fill: none; fill-opacity: 1;"/></g><g class="arrow-line"><path class="connection real" stroke-dasharray="" d="  M337.67,177.58 C312.67,222.33 172.67,230.33 154,283.33" style="stroke: rgb(0, 0, 0); stroke-width: 1; fill: none; fill-opacity: 1;"/></g><g class="arrow-line"><path class="connection real" stroke-dasharray="" d="  M337.67,177.58 C341.67,213.33 439.33,232.33 436.67,284.33" style="stroke: rgb(0, 0, 0); stroke-width: 1; fill: none; fill-opacity: 1;"/></g><g class="arrow-line"><path class="connection real" stroke-dasharray="" d="  M373.67,177.58 C348.67,222.33 242.67,231.33 240,283.33" style="stroke: rgb(0, 0, 0); stroke-width: 1; fill: none; fill-opacity: 1;"/></g><g class="arrow-line"><path class="connection real" stroke-dasharray="" d="  M373.67,177.58 C377.67,213.33 439.33,232.33 436.67,284.33" style="stroke: rgb(0, 0, 0); stroke-width: 1; fill: none; fill-opacity: 1;"/></g><g class="arrow-line"><path class="connection real" stroke-dasharray="" d="  M425,177.58 C415,218.33 75,251.33 73,282.33" style="stroke: rgb(0, 0, 0); stroke-width: 1; fill: none; fill-opacity: 1;"/></g><g class="arrow-line"><path class="connection real" stroke-dasharray="" d="  M462,177.58 C452,218.33 156,252.33 154,283.33" style="stroke: rgb(0, 0, 0); stroke-width: 1; fill: none; fill-opacity: 1;"/></g><g class="arrow-line"><path class="connection real" stroke-dasharray="" d="  M499,177.58 C489,218.33 242,252.33 240,283.33" style="stroke: rgb(0, 0, 0); stroke-width: 1; fill: none; fill-opacity: 1;"/></g><g class="arrow-line"><path class="connection real" stroke-dasharray="" d="  M425,177.58 C415,218.33 538.67,256.67 536.67,287.67" style="stroke: rgb(0, 0, 0); stroke-width: 1; fill: none; fill-opacity: 1;"/></g><g class="arrow-line"><path class="connection real" stroke-dasharray="" d="  M462,177.58 C474.67,215.67 538.67,256.67 536.67,287.67" style="stroke: rgb(0, 0, 0); stroke-width: 1; fill: none; fill-opacity: 1;"/></g><g class="arrow-line"><path class="connection real" stroke-dasharray="" d="  M499,177.58 C520.67,215.67 538.67,256.67 536.67,287.67" style="stroke: rgb(0, 0, 0); stroke-width: 1; fill: none; fill-opacity: 1;"/></g><g class="arrow-line"><path class="connection real" stroke-dasharray="" d="  M171.67,150.67 C179.91,114.16 337.47,131.26 341.59,77" style="stroke: rgb(0, 0, 0); stroke-width: 1; fill: none; fill-opacity: 1;"/></g><g class="arrow-line"><path class="connection real" stroke-dasharray="" d="  M209.77,149.68 C218.01,106.27 337.47,130.28 341.59,77" style="stroke: rgb(0, 0, 0); stroke-width: 1; fill: none; fill-opacity: 1;"/></g><g class="arrow-line"><path class="connection real" stroke-dasharray="" d="  M246.84,149.68 C255.08,106.27 344.68,122.38 341.59,77" style="stroke: rgb(0, 0, 0); stroke-width: 1; fill: none; fill-opacity: 1;"/></g><g class="arrow-line"><path class="connection real" stroke-dasharray="" d="  M372.67,150 C366.67,119 336.67,148 341.59,77" style="stroke: rgb(0, 0, 0); stroke-width: 1; fill: none; fill-opacity: 1;"/></g><g class="arrow-line"><path class="connection real" stroke-dasharray="" d="  M300.67,150 C308.91,106.59 344.68,122.38 341.59,77" style="stroke: rgb(0, 0, 0); stroke-width: 1; fill: none; fill-opacity: 1;"/></g><g class="arrow-line"><path class="connection real" stroke-dasharray="" d="  M336.67,149 C339.67,109 338.67,132 341.59,77" style="stroke: rgb(0, 0, 0); stroke-width: 1; fill: none; fill-opacity: 1;"/></g><g class="arrow-line"><path class="connection real" stroke-dasharray="" d="  M499.67,149.33 C490.67,104.33 352.67,139.33 341.59,77" style="stroke: rgb(0, 0, 0); stroke-width: 1; fill: none; fill-opacity: 1;"/></g><g class="arrow-line"><path class="connection real" stroke-dasharray="" d="  M460.67,150.33 C448.67,109.33 345.67,128.33 341.59,77" style="stroke: rgb(0, 0, 0); stroke-width: 1; fill: none; fill-opacity: 1;"/></g><g class="arrow-line"><path class="connection real" stroke-dasharray="" d="  M424.67,149.33 C410.67,107.33 344.67,126.33 341.59,77" style="stroke: rgb(0, 0, 0); stroke-width: 1; fill: none; fill-opacity: 1;"/></g><g/></g><g/><g><g><circle cx="171" cy="163.57142639160156" r="14.0089257261219" style="stroke: rgb(0, 0, 0); stroke-width: 1; fill: none; fill-opacity: 1;"/></g><g><circle cx="206.99996948242188" cy="163.57142639160156" r="14.0089257261219" style="stroke: rgb(0, 0, 0); stroke-width: 1; fill: none; fill-opacity: 1;"/></g><g><circle cx="244" cy="163.57142639160156" r="14.0089257261219" style="stroke: rgb(0, 0, 0); stroke-width: 1; fill: none; fill-opacity: 1;"/></g><g><circle cx="343" cy="58.35755975068582" r="18.607794065928395" style="stroke: rgb(0, 0, 0); stroke-width: 1; fill: none; fill-opacity: 1;"/></g><g><circle cx="300" cy="163.57142639160156" r="14.0089257261219" style="stroke: rgb(0, 0, 0); stroke-width: 1; fill: none; fill-opacity: 1;"/></g><g><circle cx="335.9999694824219" cy="163.57142639160156" r="14.0089257261219" style="stroke: rgb(0, 0, 0); stroke-width: 1; fill: none; fill-opacity: 1;"/></g><g><circle cx="373" cy="163.57142639160156" r="14.0089257261219" style="stroke: rgb(0, 0, 0); stroke-width: 1; fill: none; fill-opacity: 1;"/></g><g><circle cx="425" cy="163.57142639160156" r="14.0089257261219" style="stroke: rgb(0, 0, 0); stroke-width: 1; fill: none; fill-opacity: 1;"/></g><g><circle cx="460.9999694824219" cy="163.57142639160156" r="14.0089257261219" style="stroke: rgb(0, 0, 0); stroke-width: 1; fill: none; fill-opacity: 1;"/></g><g><circle cx="498" cy="163.57142639160156" r="14.0089257261219" style="stroke: rgb(0, 0, 0); stroke-width: 1; fill: none; fill-opacity: 1;"/></g></g><g/></svg>
        <svg xmlns="http://www.w3.org/2000/svg" xmlns:xlink="http://www.w3.org/1999/xlink" width="660" height="383.32293701171875" style="width:660px;height:383.32293701171875px;font-family:Asana-Math, Asana;background:#FFF;"><g><g><g><text x="165.99481201171875" y="155.0625" style="white-space:pre;stroke:none;fill:rgb(0,0,0);fill-opacity:1;font-size:15px;font-family:Arial, Helvetica, sans-serif;font-weight:400;font-style:normal;dominant-baseline:text-before-edge;text-decoration:none solid rgb(0, 0, 0);">X</text></g></g></g><g><g><g><text x="201.984375" y="155.0625" style="white-space:pre;stroke:none;fill:rgb(0,0,0);fill-opacity:1;font-size:15px;font-family:Arial, Helvetica, sans-serif;font-weight:400;font-style:normal;dominant-baseline:text-before-edge;text-decoration:none solid rgb(0, 0, 0);">X</text></g></g></g><g><g><g><text x="238.99481201171875" y="155.0625" style="white-space:pre;stroke:none;fill:rgb(0,0,0);fill-opacity:1;font-size:15px;font-family:Arial, Helvetica, sans-serif;font-weight:400;font-style:normal;dominant-baseline:text-before-edge;text-decoration:none solid rgb(0, 0, 0);">X</text></g></g></g><g><g><g><text x="336.6927490234375" y="45.901031494140625" style="white-space:pre;stroke:none;fill:rgb(0,0,0);fill-opacity:1;font-size:21.6px;font-family:Arial, Helvetica, sans-serif;font-weight:400;font-style:normal;dominant-baseline:text-before-edge;text-decoration:none solid rgb(0, 0, 0);">+</text></g></g></g><g><g><g><text x="140" y="364.0000305175781" style="white-space:pre;stroke:none;fill:rgb(0,0,0);fill-opacity:1;font-size:15px;font-family:Arial, Helvetica, sans-serif;font-weight:400;font-style:normal;dominant-baseline:text-before-edge;text-decoration:none solid rgb(0, 0, 0);">X</text></g></g></g><g><g><g><text x="431" y="356" style="white-space:pre;stroke:none;fill:rgb(0,0,0);fill-opacity:1;font-size:15px;font-family:Arial, Helvetica, sans-serif;font-weight:400;font-style:normal;dominant-baseline:text-before-edge;text-decoration:none solid rgb(0, 0, 0);">Y</text></g></g></g><g><g><g><text x="294.99481201171875" y="155.0625" style="white-space:pre;stroke:none;fill:rgb(0,0,0);fill-opacity:1;font-size:15px;font-family:Arial, Helvetica, sans-serif;font-weight:400;font-style:normal;dominant-baseline:text-before-edge;text-decoration:none solid rgb(0, 0, 0);">X</text></g></g></g><g><g><g><text x="330.984375" y="155.0625" style="white-space:pre;stroke:none;fill:rgb(0,0,0);fill-opacity:1;font-size:15px;font-family:Arial, Helvetica, sans-serif;font-weight:400;font-style:normal;dominant-baseline:text-before-edge;text-decoration:none solid rgb(0, 0, 0);">X</text></g></g></g><g><g><g><text x="367.99481201171875" y="155.0625" style="white-space:pre;stroke:none;fill:rgb(0,0,0);fill-opacity:1;font-size:15px;font-family:Arial, Helvetica, sans-serif;font-weight:400;font-style:normal;dominant-baseline:text-before-edge;text-decoration:none solid rgb(0, 0, 0);">X</text></g></g></g><g><g><g><text x="419.99481201171875" y="155.0625" style="white-space:pre;stroke:none;fill:rgb(0,0,0);fill-opacity:1;font-size:15px;font-family:Arial, Helvetica, sans-serif;font-weight:400;font-style:normal;dominant-baseline:text-before-edge;text-decoration:none solid rgb(0, 0, 0);">X</text></g></g></g><g><g><g><text x="455.984375" y="155.0625" style="white-space:pre;stroke:none;fill:rgb(0,0,0);fill-opacity:1;font-size:15px;font-family:Arial, Helvetica, sans-serif;font-weight:400;font-style:normal;dominant-baseline:text-before-edge;text-decoration:none solid rgb(0, 0, 0);">X</text></g></g></g><g><g><g><text x="492.99481201171875" y="155.0625" style="white-space:pre;stroke:none;fill:rgb(0,0,0);fill-opacity:1;font-size:15px;font-family:Arial, Helvetica, sans-serif;font-weight:400;font-style:normal;dominant-baseline:text-before-edge;text-decoration:none solid rgb(0, 0, 0);">X</text></g></g></g><g><g><g><text x="301.66668701171875" y="90" style="white-space:pre;stroke:none;fill:rgb(0,0,0);fill-opacity:1;font-size:15px;font-family:Arial, Helvetica, sans-serif;font-weight:400;font-style:normal;dominant-baseline:text-before-edge;text-decoration:none solid rgb(0, 0, 0);">W</text></g></g></g></svg>
</svg>
