<?xml version="1.0" encoding="utf-8" standalone="no"?>
<!DOCTYPE svg PUBLIC "-//W3C//DTD SVG 1.1//EN"
  "http://www.w3.org/Graphics/SVG/1.1/DTD/svg11.dtd">
<svg xmlns:xlink="http://www.w3.org/1999/xlink" width="460.8pt" height="345.6pt" viewBox="0 0 460.8 345.6" xmlns="http://www.w3.org/2000/svg" version="1.1">
 <metadata>
  <rdf:RDF xmlns:dc="http://purl.org/dc/elements/1.1/" xmlns:cc="http://creativecommons.org/ns#" xmlns:rdf="http://www.w3.org/1999/02/22-rdf-syntax-ns#">
   <cc:Work>
    <dc:type rdf:resource="http://purl.org/dc/dcmitype/StillImage"/>
    <dc:date>2022-06-10T12:08:48.248840</dc:date>
    <dc:format>image/svg+xml</dc:format>
    <dc:creator>
     <cc:Agent>
      <dc:title>Matplotlib v3.5.1, https://matplotlib.org/</dc:title>
     </cc:Agent>
    </dc:creator>
   </cc:Work>
  </rdf:RDF>
 </metadata>
 <defs>
  <style type="text/css">*{stroke-linejoin: round; stroke-linecap: butt}</style>
 </defs>
 <g id="figure_1">
  <g id="patch_1">
   <path d="M 0 345.6 
L 460.8 345.6 
L 460.8 0 
L 0 0 
z
" style="fill: #ffffff"/>
  </g>
  <g id="axes_1">
   <g id="patch_2">
    <path d="M 57.6 307.584 
L 414.72 307.584 
L 414.72 41.472 
L 57.6 41.472 
z
" style="fill: #ffffff"/>
   </g>
   <g id="PolyCollection_1">
    <defs>
     <path id="m7a499280f6" d="M 57.6 -161.551318 
L 57.6 -193.230802 
L 59.394573 -192.895864 
L 61.189146 -192.529991 
L 62.983719 -192.133244 
L 64.778291 -191.695089 
L 66.572864 -191.221894 
L 68.367437 -190.725263 
L 70.16201 -190.203813 
L 71.956583 -189.659462 
L 73.751156 -189.08126 
L 75.545729 -188.488159 
L 77.340302 -187.872496 
L 79.134874 -187.242864 
L 80.929447 -186.584033 
L 82.72402 -185.885216 
L 84.518593 -185.159875 
L 86.313166 -184.391349 
L 88.107739 -183.597756 
L 89.902312 -182.792711 
L 91.696884 -182.007695 
L 93.491457 -181.253122 
L 95.28603 -180.547615 
L 97.080603 -179.874312 
L 98.875176 -179.255 
L 100.669749 -178.694422 
L 102.464322 -178.223257 
L 104.258894 -177.857054 
L 106.053467 -177.73835 
L 107.84804 -177.867356 
L 109.642613 -177.971313 
L 111.437186 -177.995917 
L 113.231759 -177.966134 
L 115.026332 -177.90097 
L 116.820905 -177.828508 
L 118.615477 -177.754972 
L 120.41005 -177.715272 
L 122.204623 -177.69481 
L 123.999196 -177.693029 
L 125.793769 -177.69846 
L 127.588342 -177.699041 
L 129.382915 -177.699001 
L 131.177487 -177.700239 
L 132.97206 -177.711277 
L 134.766633 -177.740735 
L 136.561206 -177.759054 
L 138.355779 -177.77356 
L 140.150352 -177.768266 
L 141.944925 -177.756721 
L 143.739497 -177.744702 
L 145.53407 -177.730487 
L 147.328643 -177.716421 
L 149.123216 -177.709182 
L 150.917789 -177.703205 
L 152.712362 -177.693914 
L 154.506935 -177.693899 
L 156.301508 -177.691139 
L 158.09608 -177.686203 
L 159.890653 -177.689583 
L 161.685226 -177.690612 
L 163.479799 -177.687289 
L 165.274372 -177.691186 
L 167.068945 -177.691118 
L 168.863518 -177.694633 
L 170.65809 -177.70111 
L 172.452663 -177.700759 
L 174.247236 -177.705424 
L 176.041809 -177.709652 
L 177.836382 -177.710366 
L 179.630955 -177.728367 
L 181.425528 -177.74886 
L 183.220101 -177.772337 
L 185.014673 -177.788868 
L 186.809246 -177.797495 
L 188.603819 -177.802147 
L 190.398392 -177.798498 
L 192.192965 -177.787123 
L 193.987538 -177.781665 
L 195.782111 -177.784506 
L 197.576683 -177.779497 
L 199.371256 -177.772103 
L 201.165829 -177.756269 
L 202.960402 -177.719516 
L 204.754975 -177.672927 
L 206.549548 -177.609279 
L 208.344121 -177.562436 
L 210.138693 -177.55299 
L 211.933266 -177.562868 
L 213.727839 -177.691586 
L 215.522412 -178.722076 
L 217.316985 -181.127735 
L 219.111558 -185.727117 
L 220.906131 -193.234236 
L 222.700704 -203.390865 
L 224.495276 -213.146365 
L 226.289849 -212.139163 
L 228.084422 -196.352606 
L 229.878995 -183.678997 
L 231.673568 -177.179917 
L 233.468141 -176.689168 
L 235.262714 -184.017771 
L 237.057286 -189.994158 
L 238.851859 -192.200736 
L 240.646432 -191.992993 
L 242.441005 -192.819603 
L 244.235578 -192.49294 
L 246.030151 -192.035794 
L 247.824724 -191.914453 
L 249.619296 -191.878063 
L 251.413869 -191.820405 
L 253.208442 -191.761493 
L 255.003015 -191.774658 
L 256.797588 -191.930913 
L 258.592161 -192.185871 
L 260.386734 -192.484608 
L 262.181307 -192.749356 
L 263.975879 -192.947243 
L 265.770452 -193.053623 
L 267.565025 -193.052517 
L 269.359598 -192.93505 
L 271.154171 -192.711359 
L 272.948744 -192.414921 
L 274.743317 -192.112918 
L 276.537889 -191.877951 
L 278.332462 -191.769656 
L 280.127035 -191.799579 
L 281.921608 -192.120724 
L 283.716181 -192.880068 
L 285.510754 -194.11078 
L 287.305327 -195.699341 
L 289.099899 -197.487041 
L 290.894472 -199.33495 
L 292.689045 -201.004163 
L 294.483618 -202.282989 
L 296.278191 -203.283483 
L 298.072764 -204.08823 
L 299.867337 -204.675829 
L 301.66191 -205.056949 
L 303.456482 -205.291655 
L 305.251055 -205.447439 
L 307.045628 -205.588804 
L 308.840201 -205.654611 
L 310.634774 -205.634727 
L 312.429347 -205.543289 
L 314.22392 -205.337509 
L 316.018492 -204.959161 
L 317.813065 -204.381395 
L 319.607638 -203.634179 
L 321.402211 -202.796999 
L 323.196784 -201.921828 
L 324.991357 -200.963399 
L 326.78593 -199.906371 
L 328.580503 -198.726703 
L 330.375075 -197.395531 
L 332.169648 -195.967929 
L 333.964221 -194.508693 
L 335.758794 -193.135283 
L 337.553367 -191.991627 
L 339.34794 -192.304245 
L 341.142513 -192.88818 
L 342.937085 -193.238376 
L 344.731658 -193.392899 
L 346.526231 -193.403935 
L 348.320804 -193.295219 
L 350.115377 -193.098422 
L 351.90995 -192.826821 
L 353.704523 -192.520976 
L 355.499095 -192.228622 
L 357.293668 -191.991554 
L 359.088241 -191.861296 
L 360.882814 -191.826716 
L 362.677387 -191.812885 
L 364.47196 -191.888512 
L 366.266533 -192.135133 
L 368.061106 -192.522682 
L 369.855678 -193.050907 
L 371.650251 -193.672409 
L 373.444824 -194.388642 
L 375.239397 -195.176814 
L 377.03397 -196.026369 
L 378.828543 -196.950045 
L 380.623116 -197.905262 
L 382.417688 -198.864617 
L 384.212261 -199.806997 
L 386.006834 -200.72 
L 387.801407 -201.597086 
L 389.59598 -202.445134 
L 391.390553 -203.254223 
L 393.185126 -204.029401 
L 394.979698 -204.773719 
L 396.774271 -205.476282 
L 398.568844 -206.137457 
L 400.363417 -206.763687 
L 402.15799 -207.355637 
L 403.952563 -207.919131 
L 405.747136 -208.463809 
L 407.541709 -208.978035 
L 409.336281 -209.459436 
L 411.130854 -209.921567 
L 412.925427 -210.358793 
L 414.72 -210.778392 
L 414.72 -171.828905 
L 414.72 -171.828905 
L 412.925427 -172.253024 
L 411.130854 -172.694729 
L 409.336281 -173.159575 
L 407.541709 -173.656748 
L 405.747136 -174.18191 
L 403.952563 -174.730797 
L 402.15799 -175.310007 
L 400.363417 -175.92557 
L 398.568844 -176.568358 
L 396.774271 -177.250037 
L 394.979698 -177.964549 
L 393.185126 -178.722384 
L 391.390553 -179.505677 
L 389.59598 -180.325034 
L 387.801407 -181.178284 
L 386.006834 -182.067621 
L 384.212261 -182.991918 
L 382.417688 -183.96106 
L 380.623116 -184.950138 
L 378.828543 -185.945499 
L 377.03397 -186.916971 
L 375.239397 -187.841126 
L 373.444824 -188.690744 
L 371.650251 -189.459236 
L 369.855678 -190.128157 
L 368.061106 -190.697791 
L 366.266533 -191.134092 
L 364.47196 -191.409375 
L 362.677387 -191.515733 
L 360.882814 -191.534536 
L 359.088241 -191.533229 
L 357.293668 -191.420853 
L 355.499095 -191.212111 
L 353.704523 -190.926002 
L 351.90995 -190.623019 
L 350.115377 -190.344251 
L 348.320804 -190.135123 
L 346.526231 -190.017206 
L 344.731658 -190.018458 
L 342.937085 -190.156954 
L 341.142513 -190.492606 
L 339.34794 -191.06289 
L 337.553367 -191.37128 
L 335.758794 -190.221362 
L 333.964221 -188.809578 
L 332.169648 -187.247753 
L 330.375075 -185.640519 
L 328.580503 -184.08203 
L 326.78593 -182.636429 
L 324.991357 -181.328597 
L 323.196784 -180.174631 
L 321.402211 -179.144082 
L 319.607638 -178.20618 
L 317.813065 -177.384619 
L 316.018492 -176.734952 
L 314.22392 -176.284152 
L 312.429347 -175.979557 
L 310.634774 -175.755201 
L 308.840201 -175.641969 
L 307.045628 -175.691805 
L 305.251055 -175.885297 
L 303.456482 -176.178126 
L 301.66191 -176.603479 
L 299.867337 -177.206283 
L 298.072764 -178.021562 
L 296.278191 -179.051269 
L 294.483618 -180.261646 
L 292.689045 -181.734581 
L 290.894472 -183.592016 
L 289.099899 -185.621549 
L 287.305327 -187.520702 
L 285.510754 -189.162992 
L 283.716181 -190.409482 
L 281.921608 -191.155153 
L 280.127035 -191.459132 
L 278.332462 -191.470612 
L 276.537889 -191.343405 
L 274.743317 -191.09747 
L 272.948744 -190.797662 
L 271.154171 -190.509615 
L 269.359598 -190.2799 
L 267.565025 -190.158711 
L 265.770452 -190.146642 
L 263.975879 -190.231712 
L 262.181307 -190.406253 
L 260.386734 -190.673793 
L 258.592161 -190.976868 
L 256.797588 -191.243515 
L 255.003015 -191.411789 
L 253.208442 -191.434191 
L 251.413869 -191.400525 
L 249.619296 -191.396095 
L 247.824724 -191.503966 
L 246.030151 -191.665304 
L 244.235578 -191.617262 
L 242.441005 -191.559795 
L 240.646432 -191.146743 
L 238.851859 -186.346169 
L 237.057286 -182.167551 
L 235.262714 -179.169654 
L 233.468141 -172.718575 
L 231.673568 -155.285125 
L 229.878995 -134.80727 
L 228.084422 -123.232304 
L 226.289849 -132.246329 
L 224.495276 -149.784247 
L 222.700704 -162.320871 
L 220.906131 -169.669478 
L 219.111558 -173.852304 
L 217.316985 -176.041337 
L 215.522412 -176.992337 
L 213.727839 -177.311047 
L 211.933266 -177.185708 
L 210.138693 -177.170505 
L 208.344121 -177.235712 
L 206.549548 -177.284619 
L 204.754975 -177.298402 
L 202.960402 -177.300951 
L 201.165829 -177.302747 
L 199.371256 -177.316367 
L 197.576683 -177.320495 
L 195.782111 -177.337687 
L 193.987538 -177.345476 
L 192.192965 -177.347151 
L 190.398392 -177.339808 
L 188.603819 -177.34459 
L 186.809246 -177.352124 
L 185.014673 -177.365502 
L 183.220101 -177.37674 
L 181.425528 -177.397532 
L 179.630955 -177.414208 
L 177.836382 -177.413779 
L 176.041809 -177.424103 
L 174.247236 -177.428513 
L 172.452663 -177.420993 
L 170.65809 -177.42372 
L 168.863518 -177.423104 
L 167.068945 -177.42244 
L 165.274372 -177.418401 
L 163.479799 -177.415813 
L 161.685226 -177.41917 
L 159.890653 -177.42485 
L 158.09608 -177.422703 
L 156.301508 -177.425297 
L 154.506935 -177.426222 
L 152.712362 -177.431617 
L 150.917789 -177.426802 
L 149.123216 -177.424503 
L 147.328643 -177.415876 
L 145.53407 -177.412257 
L 143.739497 -177.405592 
L 141.944925 -177.394379 
L 140.150352 -177.384435 
L 138.355779 -177.385876 
L 136.561206 -177.393865 
L 134.766633 -177.413216 
L 132.97206 -177.419643 
L 131.177487 -177.433463 
L 129.382915 -177.431431 
L 127.588342 -177.421723 
L 125.793769 -177.42004 
L 123.999196 -177.418198 
L 122.204623 -177.408524 
L 120.41005 -177.392582 
L 118.615477 -177.348184 
L 116.820905 -177.287556 
L 115.026332 -177.218467 
L 113.231759 -177.158996 
L 111.437186 -177.145442 
L 109.642613 -177.188713 
L 107.84804 -177.2854 
L 106.053467 -177.42712 
L 104.258894 -177.295042 
L 102.464322 -176.925484 
L 100.669749 -176.462428 
L 98.875176 -175.918195 
L 97.080603 -175.31517 
L 95.28603 -174.668761 
L 93.491457 -173.988487 
L 91.696884 -173.265476 
L 89.902312 -172.497569 
L 88.107739 -171.701044 
L 86.313166 -170.906096 
L 84.518593 -170.124261 
L 82.72402 -169.379513 
L 80.929447 -168.673415 
L 79.134874 -167.997932 
L 77.340302 -167.341612 
L 75.545729 -166.701794 
L 73.751156 -166.048952 
L 71.956583 -165.401184 
L 70.16201 -164.779604 
L 68.367437 -164.181598 
L 66.572864 -163.625114 
L 64.778291 -163.114082 
L 62.983719 -162.65615 
L 61.189146 -162.24645 
L 59.394573 -161.887481 
L 57.6 -161.551318 
z
" style="stroke: #1f77b4; stroke-opacity: 0.8"/>
    </defs>
    <g clip-path="url(#p1747d691d3)">
     <use xlink:href="#m7a499280f6" x="0" y="345.6" style="fill: #1f77b4; fill-opacity: 0.8; stroke: #1f77b4; stroke-opacity: 0.8"/>
    </g>
   </g>
   <g id="PolyCollection_2">
    <defs>
     <path id="m7950b8d3bb" d="M 57.6 -145.711578 
L 57.6 -209.070545 
L 59.394573 -208.400057 
L 61.189146 -207.671761 
L 62.983719 -206.871792 
L 64.778291 -205.985591 
L 66.572864 -205.020284 
L 68.367437 -203.997095 
L 70.16201 -202.915919 
L 71.956583 -201.788602 
L 73.751156 -200.597414 
L 75.545729 -199.381341 
L 77.340302 -198.137938 
L 79.134874 -196.865331 
L 80.929447 -195.539342 
L 82.72402 -194.138068 
L 84.518593 -192.677681 
L 86.313166 -191.133976 
L 88.107739 -189.546111 
L 89.902312 -187.940281 
L 91.696884 -186.378805 
L 93.491457 -184.88544 
L 95.28603 -183.487043 
L 97.080603 -182.153884 
L 98.875176 -180.923403 
L 100.669749 -179.810419 
L 102.464322 -178.872144 
L 104.258894 -178.138061 
L 106.053467 -177.893965 
L 107.84804 -178.158334 
L 109.642613 -178.362613 
L 111.437186 -178.421155 
L 113.231759 -178.369702 
L 115.026332 -178.242222 
L 116.820905 -178.098983 
L 118.615477 -177.958366 
L 120.41005 -177.876616 
L 122.204623 -177.837954 
L 123.999196 -177.830444 
L 125.793769 -177.837669 
L 127.588342 -177.8377 
L 129.382915 -177.832786 
L 131.177487 -177.833626 
L 132.97206 -177.857094 
L 134.766633 -177.904495 
L 136.561206 -177.941648 
L 138.355779 -177.967401 
L 140.150352 -177.960181 
L 141.944925 -177.937892 
L 143.739497 -177.914257 
L 145.53407 -177.889601 
L 147.328643 -177.866693 
L 149.123216 -177.851522 
L 150.917789 -177.841406 
L 152.712362 -177.825062 
L 154.506935 -177.827738 
L 156.301508 -177.824059 
L 158.09608 -177.817952 
L 159.890653 -177.821949 
L 161.685226 -177.826332 
L 163.479799 -177.823027 
L 165.274372 -177.827579 
L 167.068945 -177.825456 
L 168.863518 -177.830398 
L 170.65809 -177.839805 
L 172.452663 -177.840642 
L 174.247236 -177.843879 
L 176.041809 -177.852426 
L 177.836382 -177.858659 
L 179.630955 -177.885447 
L 181.425528 -177.924524 
L 183.220101 -177.970136 
L 185.014673 -178.000552 
L 186.809246 -178.020181 
L 188.603819 -178.030926 
L 190.398392 -178.027843 
L 192.192965 -178.007109 
L 193.987538 -177.99976 
L 195.782111 -178.007915 
L 197.576683 -178.008999 
L 199.371256 -177.999972 
L 201.165829 -177.98303 
L 202.960402 -177.928798 
L 204.754975 -177.860189 
L 206.549548 -177.771608 
L 208.344121 -177.725798 
L 210.138693 -177.744233 
L 211.933266 -177.751447 
L 213.727839 -177.881855 
L 215.522412 -179.586945 
L 217.316985 -183.670935 
L 219.111558 -191.664525 
L 220.906131 -205.016613 
L 222.700704 -223.925862 
L 224.495276 -244.827423 
L 226.289849 -252.085576 
L 228.084422 -232.91276 
L 229.878995 -208.114863 
L 231.673568 -188.127313 
L 233.468141 -178.674465 
L 235.262714 -186.44183 
L 237.057286 -193.90746 
L 238.851859 -195.128021 
L 240.646432 -192.41612 
L 242.441005 -193.449506 
L 244.235578 -192.93078 
L 246.030151 -192.221038 
L 247.824724 -192.119696 
L 249.619296 -192.119046 
L 251.413869 -192.030345 
L 253.208442 -191.925142 
L 255.003015 -191.956092 
L 256.797588 -192.274611 
L 258.592161 -192.790372 
L 260.386734 -193.390017 
L 262.181307 -193.920908 
L 263.975879 -194.305008 
L 265.770452 -194.507115 
L 267.565025 -194.499421 
L 269.359598 -194.262625 
L 271.154171 -193.812231 
L 272.948744 -193.22355 
L 274.743317 -192.62064 
L 276.537889 -192.145224 
L 278.332462 -191.919179 
L 280.127035 -191.969802 
L 281.921608 -192.603507 
L 283.716181 -194.115362 
L 285.510754 -196.584673 
L 287.305327 -199.788662 
L 289.099899 -203.419786 
L 290.894472 -207.206416 
L 292.689045 -210.638955 
L 294.483618 -213.293662 
L 296.278191 -215.39959 
L 298.072764 -217.121566 
L 299.867337 -218.410603 
L 301.66191 -219.283684 
L 303.456482 -219.848417 
L 305.251055 -220.228512 
L 307.045628 -220.537301 
L 308.840201 -220.66093 
L 310.634774 -220.574488 
L 312.429347 -220.325154 
L 314.22392 -219.864185 
L 316.018492 -219.071266 
L 317.813065 -217.879783 
L 319.607638 -216.348178 
L 321.402211 -214.623459 
L 323.196784 -212.795427 
L 324.991357 -210.780804 
L 326.78593 -208.541344 
L 328.580503 -206.049038 
L 330.375075 -203.273035 
L 332.169648 -200.328016 
L 333.964221 -197.35825 
L 335.758794 -194.592244 
L 337.553367 -192.3018 
L 339.34794 -192.924924 
L 341.142513 -194.085966 
L 342.937085 -194.779088 
L 344.731658 -195.08012 
L 346.526231 -195.097298 
L 348.320804 -194.875268 
L 350.115377 -194.475509 
L 351.90995 -193.928721 
L 353.704523 -193.318462 
L 355.499095 -192.736878 
L 357.293668 -192.276904 
L 359.088241 -192.025328 
L 360.882814 -191.972804 
L 362.677387 -191.961461 
L 364.47196 -192.128081 
L 366.266533 -192.635654 
L 368.061106 -193.435129 
L 369.855678 -194.512283 
L 371.650251 -195.778996 
L 373.444824 -197.237591 
L 375.239397 -198.84466 
L 377.03397 -200.581069 
L 378.828543 -202.452317 
L 380.623116 -204.382824 
L 382.417688 -206.316396 
L 384.212261 -208.214536 
L 386.006834 -210.046188 
L 387.801407 -211.806486 
L 389.59598 -213.505182 
L 391.390553 -215.128494 
L 393.185126 -216.682911 
L 394.979698 -218.178303 
L 396.774271 -219.589404 
L 398.568844 -220.922005 
L 400.363417 -222.182747 
L 402.15799 -223.378451 
L 403.952563 -224.513298 
L 405.747136 -225.60476 
L 407.541709 -226.638679 
L 409.336281 -227.609367 
L 411.130854 -228.534983 
L 412.925427 -229.411678 
L 414.72 -230.253136 
L 414.72 -152.354163 
L 414.72 -152.354163 
L 412.925427 -153.200138 
L 411.130854 -154.081309 
L 409.336281 -155.009644 
L 407.541709 -155.996105 
L 405.747136 -157.040961 
L 403.952563 -158.13663 
L 402.15799 -159.287192 
L 400.363417 -160.506512 
L 398.568844 -161.783808 
L 396.774271 -163.136914 
L 394.979698 -164.559964 
L 393.185126 -166.068876 
L 391.390553 -167.631405 
L 389.59598 -169.264985 
L 387.801407 -170.968883 
L 386.006834 -172.741432 
L 384.212261 -174.584379 
L 382.417688 -176.509281 
L 380.623116 -178.472576 
L 378.828543 -180.443227 
L 377.03397 -182.362271 
L 375.239397 -184.173281 
L 373.444824 -185.841794 
L 371.650251 -187.352649 
L 369.855678 -188.666782 
L 368.061106 -189.785344 
L 366.266533 -190.633571 
L 364.47196 -191.169807 
L 362.677387 -191.367158 
L 360.882814 -191.388446 
L 359.088241 -191.369195 
L 357.293668 -191.135503 
L 355.499095 -190.703855 
L 353.704523 -190.128515 
L 351.90995 -189.521119 
L 350.115377 -188.967165 
L 348.320804 -188.555075 
L 346.526231 -188.323841 
L 344.731658 -188.331237 
L 342.937085 -188.616242 
L 341.142513 -189.294819 
L 339.34794 -190.442211 
L 337.553367 -191.061107 
L 335.758794 -188.764402 
L 333.964221 -185.96002 
L 332.169648 -182.887665 
L 330.375075 -179.763014 
L 328.580503 -176.759693 
L 326.78593 -174.001458 
L 324.991357 -171.511196 
L 323.196784 -169.301032 
L 321.402211 -167.317623 
L 319.607638 -165.49218 
L 317.813065 -163.886231 
L 316.018492 -162.622847 
L 314.22392 -161.757474 
L 312.429347 -161.197692 
L 310.634774 -160.815438 
L 308.840201 -160.635648 
L 307.045628 -160.743306 
L 305.251055 -161.104227 
L 303.456482 -161.621362 
L 301.66191 -162.376744 
L 299.867337 -163.471509 
L 298.072764 -164.988228 
L 296.278191 -166.935162 
L 294.483618 -169.250974 
L 292.689045 -172.09979 
L 290.894472 -175.720549 
L 289.099899 -179.688804 
L 287.305327 -183.431383 
L 285.510754 -186.689099 
L 283.716181 -189.174189 
L 281.921608 -190.672369 
L 280.127035 -191.288908 
L 278.332462 -191.321089 
L 276.537889 -191.076133 
L 274.743317 -190.589747 
L 272.948744 -189.989034 
L 271.154171 -189.408742 
L 269.359598 -188.952324 
L 267.565025 -188.711807 
L 265.770452 -188.693151 
L 263.975879 -188.873947 
L 262.181307 -189.234702 
L 260.386734 -189.768385 
L 258.592161 -190.372366 
L 256.797588 -190.899816 
L 255.003015 -191.230355 
L 253.208442 -191.270541 
L 251.413869 -191.190583 
L 249.619296 -191.155111 
L 247.824724 -191.298723 
L 246.030151 -191.480058 
L 244.235578 -191.179423 
L 242.441005 -190.929891 
L 240.646432 -190.723617 
L 238.851859 -183.418885 
L 237.057286 -178.254248 
L 235.262714 -176.745595 
L 233.468141 -170.733278 
L 231.673568 -144.337729 
L 229.878995 -110.371407 
L 228.084422 -86.672152 
L 226.289849 -92.299909 
L 224.495276 -118.103189 
L 222.700704 -141.785874 
L 220.906131 -157.887099 
L 219.111558 -167.914897 
L 217.316985 -173.498138 
L 215.522412 -176.127468 
L 213.727839 -177.120777 
L 211.933266 -176.997128 
L 210.138693 -176.979262 
L 208.344121 -177.07235 
L 206.549548 -177.12229 
L 204.754975 -177.11114 
L 202.960402 -177.091669 
L 201.165829 -177.075986 
L 199.371256 -177.088499 
L 197.576683 -177.090994 
L 195.782111 -177.114277 
L 193.987538 -177.127381 
L 192.192965 -177.127165 
L 190.398392 -177.110463 
L 188.603819 -177.115811 
L 186.809246 -177.129438 
L 185.014673 -177.153818 
L 183.220101 -177.178942 
L 181.425528 -177.221868 
L 179.630955 -177.257128 
L 177.836382 -177.265486 
L 176.041809 -177.281328 
L 174.247236 -177.290058 
L 172.452663 -177.28111 
L 170.65809 -177.285025 
L 168.863518 -177.287339 
L 167.068945 -177.288101 
L 165.274372 -177.282009 
L 163.479799 -177.280075 
L 161.685226 -177.283449 
L 159.890653 -177.292483 
L 158.09608 -177.290954 
L 156.301508 -177.292376 
L 154.506935 -177.292383 
L 152.712362 -177.300468 
L 150.917789 -177.2886 
L 149.123216 -177.282163 
L 147.328643 -177.265604 
L 145.53407 -177.253143 
L 143.739497 -177.236037 
L 141.944925 -177.213208 
L 140.150352 -177.19252 
L 138.355779 -177.192034 
L 136.561206 -177.211271 
L 134.766633 -177.249457 
L 132.97206 -177.273827 
L 131.177487 -177.300076 
L 129.382915 -177.297646 
L 127.588342 -177.283064 
L 125.793769 -177.28083 
L 123.999196 -177.280783 
L 122.204623 -177.265381 
L 120.41005 -177.231238 
L 118.615477 -177.14479 
L 116.820905 -177.01708 
L 115.026332 -176.877216 
L 113.231759 -176.755427 
L 111.437186 -176.720204 
L 109.642613 -176.797413 
L 107.84804 -176.994422 
L 106.053467 -177.271505 
L 104.258894 -177.014035 
L 102.464322 -176.276598 
L 100.669749 -175.346431 
L 98.875176 -174.249792 
L 97.080603 -173.035598 
L 95.28603 -171.729334 
L 93.491457 -170.35617 
L 91.696884 -168.894367 
L 89.902312 -167.349998 
L 88.107739 -165.752688 
L 86.313166 -164.163469 
L 84.518593 -162.606453 
L 82.72402 -161.126661 
L 80.929447 -159.718106 
L 79.134874 -158.375466 
L 77.340302 -157.07617 
L 75.545729 -155.80861 
L 73.751156 -154.532798 
L 71.956583 -153.272044 
L 70.16201 -152.0675 
L 68.367437 -150.909765 
L 66.572864 -149.826725 
L 64.778291 -148.823577 
L 62.983719 -147.917605 
L 61.189146 -147.104679 
L 59.394573 -146.383292 
L 57.6 -145.711578 
z
" style="stroke: #1f77b4; stroke-opacity: 0.6"/>
    </defs>
    <g clip-path="url(#p1747d691d3)">
     <use xlink:href="#m7950b8d3bb" x="0" y="345.6" style="fill: #1f77b4; fill-opacity: 0.6; stroke: #1f77b4; stroke-opacity: 0.6"/>
    </g>
   </g>
   <g id="PolyCollection_3">
    <defs>
     <path id="m6cd2b3c70a" d="M 57.6 -129.871834 
L 57.6 -224.910289 
L 59.394573 -223.904249 
L 61.189146 -222.813531 
L 62.983719 -221.61034 
L 64.778291 -220.276093 
L 66.572864 -218.818674 
L 68.367437 -217.268928 
L 70.16201 -215.628023 
L 71.956583 -213.917741 
L 73.751156 -212.113567 
L 75.545729 -210.274522 
L 77.340302 -208.40338 
L 79.134874 -206.487795 
L 80.929447 -204.494651 
L 82.72402 -202.39092 
L 84.518593 -200.195489 
L 86.313166 -197.876601 
L 88.107739 -195.494467 
L 89.902312 -193.087852 
L 91.696884 -190.749915 
L 93.491457 -188.517757 
L 95.28603 -186.426469 
L 97.080603 -184.433455 
L 98.875176 -182.591806 
L 100.669749 -180.926416 
L 102.464322 -179.52103 
L 104.258894 -178.419067 
L 106.053467 -178.04958 
L 107.84804 -178.449312 
L 109.642613 -178.753914 
L 111.437186 -178.846392 
L 113.231759 -178.773271 
L 115.026332 -178.583474 
L 116.820905 -178.369459 
L 118.615477 -178.16176 
L 120.41005 -178.037961 
L 122.204623 -177.981097 
L 123.999196 -177.96786 
L 125.793769 -177.976879 
L 127.588342 -177.976359 
L 129.382915 -177.966571 
L 131.177487 -177.967014 
L 132.97206 -178.002911 
L 134.766633 -178.068254 
L 136.561206 -178.124242 
L 138.355779 -178.161243 
L 140.150352 -178.152097 
L 141.944925 -178.119063 
L 143.739497 -178.083813 
L 145.53407 -178.048716 
L 147.328643 -178.016966 
L 149.123216 -177.993862 
L 150.917789 -177.979608 
L 152.712362 -177.956211 
L 154.506935 -177.961577 
L 156.301508 -177.95698 
L 158.09608 -177.949702 
L 159.890653 -177.954316 
L 161.685226 -177.962053 
L 163.479799 -177.958765 
L 165.274372 -177.963971 
L 167.068945 -177.959795 
L 168.863518 -177.966163 
L 170.65809 -177.9785 
L 172.452663 -177.980526 
L 174.247236 -177.982334 
L 176.041809 -177.995201 
L 177.836382 -178.006952 
L 179.630955 -178.042527 
L 181.425528 -178.100188 
L 183.220101 -178.167935 
L 185.014673 -178.212235 
L 186.809246 -178.242867 
L 188.603819 -178.259704 
L 190.398392 -178.257188 
L 192.192965 -178.227094 
L 193.987538 -178.217855 
L 195.782111 -178.231325 
L 197.576683 -178.2385 
L 199.371256 -178.22784 
L 201.165829 -178.209791 
L 202.960402 -178.138081 
L 204.754975 -178.047451 
L 206.549548 -177.933938 
L 208.344121 -177.88916 
L 210.138693 -177.935475 
L 211.933266 -177.940027 
L 213.727839 -178.072125 
L 215.522412 -180.451815 
L 217.316985 -186.214134 
L 219.111558 -197.601933 
L 220.906131 -216.798995 
L 222.700704 -244.460857 
L 224.495276 -276.508482 
L 226.289849 -292.032 
L 228.084422 -269.472912 
L 229.878995 -232.550725 
L 231.673568 -199.074711 
L 233.468141 -180.659761 
L 235.262714 -188.865889 
L 237.057286 -197.820764 
L 238.851859 -198.055304 
L 240.646432 -192.839245 
L 242.441005 -194.079412 
L 244.235578 -193.368617 
L 246.030151 -192.406284 
L 247.824724 -192.324939 
L 249.619296 -192.36003 
L 251.413869 -192.240287 
L 253.208442 -192.088794 
L 255.003015 -192.137526 
L 256.797588 -192.61831 
L 258.592161 -193.394875 
L 260.386734 -194.295424 
L 262.181307 -195.092459 
L 263.975879 -195.662773 
L 265.770452 -195.960606 
L 267.565025 -195.946325 
L 269.359598 -195.590201 
L 271.154171 -194.913104 
L 272.948744 -194.03218 
L 274.743317 -193.128364 
L 276.537889 -192.412496 
L 278.332462 -192.068701 
L 280.127035 -192.140027 
L 281.921608 -193.086291 
L 283.716181 -195.350654 
L 285.510754 -199.058567 
L 287.305327 -203.87798 
L 289.099899 -209.352533 
L 290.894472 -215.077886 
L 292.689045 -220.273743 
L 294.483618 -224.304332 
L 296.278191 -227.515695 
L 298.072764 -230.154902 
L 299.867337 -232.145376 
L 301.66191 -233.510417 
L 303.456482 -234.405182 
L 305.251055 -235.009579 
L 307.045628 -235.485801 
L 308.840201 -235.667252 
L 310.634774 -235.514255 
L 312.429347 -235.107016 
L 314.22392 -234.390864 
L 316.018492 -233.183372 
L 317.813065 -231.378172 
L 319.607638 -229.06218 
L 321.402211 -226.449916 
L 323.196784 -223.669026 
L 324.991357 -220.598204 
L 326.78593 -217.176316 
L 328.580503 -213.371377 
L 330.375075 -209.150542 
L 332.169648 -204.688105 
L 333.964221 -200.207808 
L 335.758794 -196.049204 
L 337.553367 -192.611972 
L 339.34794 -193.545603 
L 341.142513 -195.283754 
L 342.937085 -196.319799 
L 344.731658 -196.767341 
L 346.526231 -196.790664 
L 348.320804 -196.455315 
L 350.115377 -195.852594 
L 351.90995 -195.030622 
L 353.704523 -194.115949 
L 355.499095 -193.245134 
L 357.293668 -192.562254 
L 359.088241 -192.189362 
L 360.882814 -192.118895 
L 362.677387 -192.110036 
L 364.47196 -192.367648 
L 366.266533 -193.136175 
L 368.061106 -194.347575 
L 369.855678 -195.973657 
L 371.650251 -197.885581 
L 373.444824 -200.086539 
L 375.239397 -202.512504 
L 377.03397 -205.135769 
L 378.828543 -207.954592 
L 380.623116 -210.860387 
L 382.417688 -213.768174 
L 384.212261 -216.622075 
L 386.006834 -219.372381 
L 387.801407 -222.015889 
L 389.59598 -224.565231 
L 391.390553 -227.002769 
L 393.185126 -229.336415 
L 394.979698 -231.582889 
L 396.774271 -233.702529 
L 398.568844 -235.706556 
L 400.363417 -237.601808 
L 402.15799 -239.401267 
L 403.952563 -241.107462 
L 405.747136 -242.745709 
L 407.541709 -244.299319 
L 409.336281 -245.759298 
L 411.130854 -247.148404 
L 412.925427 -248.464563 
L 414.72 -249.727872 
L 414.72 -132.879423 
L 414.72 -132.879423 
L 412.925427 -134.147253 
L 411.130854 -135.467893 
L 409.336281 -136.859711 
L 407.541709 -138.335461 
L 405.747136 -139.900013 
L 403.952563 -141.542463 
L 402.15799 -143.264381 
L 400.363417 -145.087452 
L 398.568844 -146.999256 
L 396.774271 -149.023793 
L 394.979698 -151.155381 
L 393.185126 -153.415368 
L 391.390553 -155.757132 
L 389.59598 -158.204935 
L 387.801407 -160.759482 
L 386.006834 -163.415242 
L 384.212261 -166.17684 
L 382.417688 -169.057502 
L 380.623116 -171.995014 
L 378.828543 -174.940954 
L 377.03397 -177.807572 
L 375.239397 -180.505436 
L 373.444824 -182.992846 
L 371.650251 -185.246063 
L 369.855678 -187.205408 
L 368.061106 -188.872899 
L 366.266533 -190.13305 
L 364.47196 -190.930238 
L 362.677387 -191.218582 
L 360.882814 -191.242356 
L 359.088241 -191.205162 
L 357.293668 -190.850153 
L 355.499095 -190.195599 
L 353.704523 -189.331028 
L 351.90995 -188.419217 
L 350.115377 -187.59008 
L 348.320804 -186.975028 
L 346.526231 -186.630477 
L 344.731658 -186.644016 
L 342.937085 -187.07553 
L 341.142513 -188.097032 
L 339.34794 -189.821533 
L 337.553367 -190.750934 
L 335.758794 -187.307441 
L 333.964221 -183.110463 
L 332.169648 -178.527577 
L 330.375075 -173.885508 
L 328.580503 -169.437357 
L 326.78593 -165.366487 
L 324.991357 -161.693793 
L 323.196784 -158.427432 
L 321.402211 -155.491163 
L 319.607638 -152.77818 
L 317.813065 -150.387841 
L 316.018492 -148.510745 
L 314.22392 -147.230794 
L 312.429347 -146.415826 
L 310.634774 -145.875676 
L 308.840201 -145.629325 
L 307.045628 -145.794805 
L 305.251055 -146.323157 
L 303.456482 -147.064596 
L 301.66191 -148.15001 
L 299.867337 -149.736734 
L 298.072764 -151.954893 
L 296.278191 -154.819056 
L 294.483618 -158.240302 
L 292.689045 -162.465 
L 290.894472 -167.849081 
L 289.099899 -173.756058 
L 287.305327 -179.342063 
L 285.510754 -184.215205 
L 283.716181 -187.938896 
L 281.921608 -190.189584 
L 280.127035 -191.118685 
L 278.332462 -191.171566 
L 276.537889 -190.80886 
L 274.743317 -190.082024 
L 272.948744 -189.180405 
L 271.154171 -188.30787 
L 269.359598 -187.62475 
L 267.565025 -187.264903 
L 265.770452 -187.239659 
L 263.975879 -187.516182 
L 262.181307 -188.063151 
L 260.386734 -188.862976 
L 258.592161 -189.767865 
L 256.797588 -190.556117 
L 255.003015 -191.048921 
L 253.208442 -191.106889 
L 251.413869 -190.980643 
L 249.619296 -190.914127 
L 247.824724 -191.093479 
L 246.030151 -191.294814 
L 244.235578 -190.741584 
L 242.441005 -190.299987 
L 240.646432 -190.300492 
L 238.851859 -180.4916 
L 237.057286 -174.340945 
L 235.262714 -174.321537 
L 233.468141 -168.747982 
L 231.673568 -133.390333 
L 229.878995 -85.935538 
L 228.084422 -50.112 
L 226.289849 -52.353485 
L 224.495276 -86.42213 
L 222.700704 -121.250879 
L 220.906131 -146.104722 
L 219.111558 -161.977489 
L 217.316985 -170.954938 
L 215.522412 -175.262598 
L 213.727839 -176.930508 
L 211.933266 -176.808548 
L 210.138693 -176.788019 
L 208.344121 -176.908988 
L 206.549548 -176.95996 
L 204.754975 -176.923877 
L 202.960402 -176.882387 
L 201.165829 -176.849224 
L 199.371256 -176.860631 
L 197.576683 -176.861493 
L 195.782111 -176.890868 
L 193.987538 -176.909286 
L 192.192965 -176.90718 
L 190.398392 -176.881119 
L 188.603819 -176.887032 
L 186.809246 -176.906752 
L 185.014673 -176.942135 
L 183.220101 -176.981143 
L 181.425528 -177.046204 
L 179.630955 -177.100048 
L 177.836382 -177.117193 
L 176.041809 -177.138553 
L 174.247236 -177.151603 
L 172.452663 -177.141227 
L 170.65809 -177.14633 
L 168.863518 -177.151574 
L 167.068945 -177.153762 
L 165.274372 -177.145616 
L 163.479799 -177.144337 
L 161.685226 -177.147729 
L 159.890653 -177.160117 
L 158.09608 -177.159204 
L 156.301508 -177.159455 
L 154.506935 -177.158544 
L 152.712362 -177.169319 
L 150.917789 -177.150399 
L 149.123216 -177.139823 
L 147.328643 -177.115332 
L 145.53407 -177.094028 
L 143.739497 -177.066482 
L 141.944925 -177.032037 
L 140.150352 -177.000604 
L 138.355779 -176.998193 
L 136.561206 -177.028677 
L 134.766633 -177.085697 
L 132.97206 -177.12801 
L 131.177487 -177.166688 
L 129.382915 -177.163861 
L 127.588342 -177.144405 
L 125.793769 -177.14162 
L 123.999196 -177.143367 
L 122.204623 -177.122238 
L 120.41005 -177.069893 
L 118.615477 -176.941396 
L 116.820905 -176.746604 
L 115.026332 -176.535964 
L 113.231759 -176.351859 
L 111.437186 -176.294967 
L 109.642613 -176.406113 
L 107.84804 -176.703443 
L 106.053467 -177.115891 
L 104.258894 -176.733029 
L 102.464322 -175.627711 
L 100.669749 -174.230434 
L 98.875176 -172.581389 
L 97.080603 -170.756027 
L 95.28603 -168.789907 
L 93.491457 -166.723852 
L 91.696884 -164.523257 
L 89.902312 -162.202428 
L 88.107739 -159.804331 
L 86.313166 -157.420842 
L 84.518593 -155.088645 
L 82.72402 -152.873809 
L 80.929447 -150.762797 
L 79.134874 -148.753001 
L 77.340302 -146.810731 
L 75.545729 -144.915429 
L 73.751156 -143.016645 
L 71.956583 -141.142905 
L 70.16201 -139.355396 
L 68.367437 -137.637935 
L 66.572864 -136.028335 
L 64.778291 -134.533075 
L 62.983719 -133.179057 
L 61.189146 -131.962909 
L 59.394573 -130.8791 
L 57.6 -129.871834 
z
" style="stroke: #1f77b4; stroke-opacity: 0.4"/>
    </defs>
    <g clip-path="url(#p1747d691d3)">
     <use xlink:href="#m6cd2b3c70a" x="0" y="345.6" style="fill: #1f77b4; fill-opacity: 0.4; stroke: #1f77b4; stroke-opacity: 0.4"/>
    </g>
   </g>
   <g id="matplotlib.axis_1">
    <g id="xtick_1">
     <g id="line2d_1">
      <defs>
       <path id="m19781b0f37" d="M 0 0 
L 0 3.5 
" style="stroke: #000000; stroke-width: 0.8"/>
      </defs>
      <g>
       <use xlink:href="#m19781b0f37" x="57.6" y="307.584" style="stroke: #000000; stroke-width: 0.8"/>
      </g>
     </g>
     <g id="text_1">
      <!-- $\mathdefault{0.0}$ -->
      <g transform="translate(51.37335 321.712237)scale(0.1 -0.1)">
       <defs>
        <path id="URWPalladioL-Roma-30" d="M 1683 4416 
C 691 4416 186 3628 186 2077 
C 186 1326 320 680 544 366 
C 768 51 1126 -128 1523 -128 
C 2490 -128 2976 705 2976 2346 
C 2976 3749 2560 4416 1683 4416 
z
M 1568 4192 
C 2189 4192 2438 3564 2438 2025 
C 2438 661 2195 96 1606 96 
C 986 96 723 744 723 2308 
C 723 3660 960 4192 1568 4192 
z
" transform="scale(0.015625)"/>
        <path id="URWPalladioL-Roma-2e" d="M 794 744 
C 602 744 429 564 429 372 
C 429 179 602 0 787 0 
C 992 0 1171 173 1171 372 
C 1171 564 992 744 794 744 
z
" transform="scale(0.015625)"/>
       </defs>
       <use xlink:href="#URWPalladioL-Roma-30" transform="scale(0.996264)"/>
       <use xlink:href="#URWPalladioL-Roma-2e" transform="translate(49.8132 0)scale(0.996264)"/>
       <use xlink:href="#URWPalladioL-Roma-30" transform="translate(74.719801 0)scale(0.996264)"/>
      </g>
     </g>
    </g>
    <g id="xtick_2">
     <g id="line2d_2">
      <g>
       <use xlink:href="#m19781b0f37" x="129.024" y="307.584" style="stroke: #000000; stroke-width: 0.8"/>
      </g>
     </g>
     <g id="text_2">
      <!-- $\mathdefault{0.2}$ -->
      <g transform="translate(122.79735 321.712237)scale(0.1 -0.1)">
       <defs>
        <path id="URWPalladioL-Roma-32" d="M 102 160 
L 102 0 
C 1299 0 1299 0 1530 0 
C 1760 0 1760 0 2995 0 
C 2982 125 2982 186 2982 269 
C 2982 348 2982 407 2995 539 
C 2259 539 1965 539 781 539 
L 1946 1761 
C 2566 2414 2758 2763 2758 3238 
C 2758 3966 2259 4416 1446 4416 
C 986 4416 672 4288 358 3969 
L 250 3099 
L 435 3099 
L 518 3393 
C 621 3763 851 3923 1280 3923 
C 1830 3923 2182 3577 2182 3035 
C 2182 2555 1914 2083 1190 1316 
L 102 160 
z
" transform="scale(0.015625)"/>
       </defs>
       <use xlink:href="#URWPalladioL-Roma-30" transform="scale(0.996264)"/>
       <use xlink:href="#URWPalladioL-Roma-2e" transform="translate(49.8132 0)scale(0.996264)"/>
       <use xlink:href="#URWPalladioL-Roma-32" transform="translate(74.719801 0)scale(0.996264)"/>
      </g>
     </g>
    </g>
    <g id="xtick_3">
     <g id="line2d_3">
      <g>
       <use xlink:href="#m19781b0f37" x="200.448" y="307.584" style="stroke: #000000; stroke-width: 0.8"/>
      </g>
     </g>
     <g id="text_3">
      <!-- $\mathdefault{0.4}$ -->
      <g transform="translate(194.22135 321.712237)scale(0.1 -0.1)">
       <defs>
        <path id="URWPalladioL-Roma-34" d="M 1792 1152 
L 1792 673 
C 1792 289 1722 199 1408 199 
L 1011 199 
L 1011 0 
C 1862 0 1862 0 2016 0 
C 2170 0 2170 0 3021 0 
L 3021 199 
L 2714 199 
C 2400 199 2330 282 2330 669 
L 2330 1152 
C 2707 1152 2842 1152 3021 1133 
L 3021 1588 
C 2720 1563 2598 1563 2502 1563 
L 2483 1563 
L 2330 1563 
L 2330 2457 
C 2330 3600 2342 4152 2374 4416 
L 2298 4448 
L 1824 4275 
L 13 1299 
L 83 1152 
L 1792 1152 
z
M 1792 1563 
L 416 1563 
L 1792 3826 
L 1792 1563 
z
" transform="scale(0.015625)"/>
       </defs>
       <use xlink:href="#URWPalladioL-Roma-30" transform="scale(0.996264)"/>
       <use xlink:href="#URWPalladioL-Roma-2e" transform="translate(49.8132 0)scale(0.996264)"/>
       <use xlink:href="#URWPalladioL-Roma-34" transform="translate(74.719801 0)scale(0.996264)"/>
      </g>
     </g>
    </g>
    <g id="xtick_4">
     <g id="line2d_4">
      <g>
       <use xlink:href="#m19781b0f37" x="271.872" y="307.584" style="stroke: #000000; stroke-width: 0.8"/>
      </g>
     </g>
     <g id="text_4">
      <!-- $\mathdefault{0.6}$ -->
      <g transform="translate(265.64535 321.712237)scale(0.1 -0.1)">
       <defs>
        <path id="URWPalladioL-Roma-36" d="M 2662 4310 
L 2426 4419 
C 1811 4214 1549 4086 1222 3804 
C 563 3246 205 2464 205 1585 
C 205 526 717 -128 1542 -128 
C 2374 -128 2995 532 2995 1405 
C 2995 2143 2554 2624 1875 2624 
C 1555 2624 1363 2540 986 2239 
C 915 2181 909 2175 838 2124 
C 973 3284 1510 3913 2662 4259 
L 2662 4310 
z
M 1632 2239 
C 2118 2239 2445 1816 2445 1181 
C 2445 513 2118 83 1626 83 
C 1082 83 787 551 787 1412 
C 787 1636 813 1758 883 1867 
C 1024 2085 1325 2239 1632 2239 
z
" transform="scale(0.015625)"/>
       </defs>
       <use xlink:href="#URWPalladioL-Roma-30" transform="scale(0.996264)"/>
       <use xlink:href="#URWPalladioL-Roma-2e" transform="translate(49.8132 0)scale(0.996264)"/>
       <use xlink:href="#URWPalladioL-Roma-36" transform="translate(74.719801 0)scale(0.996264)"/>
      </g>
     </g>
    </g>
    <g id="xtick_5">
     <g id="line2d_5">
      <g>
       <use xlink:href="#m19781b0f37" x="343.296" y="307.584" style="stroke: #000000; stroke-width: 0.8"/>
      </g>
     </g>
     <g id="text_5">
      <!-- $\mathdefault{0.8}$ -->
      <g transform="translate(337.06935 321.712237)scale(0.1 -0.1)">
       <defs>
        <path id="URWPalladioL-Roma-38" d="M 1075 2211 
C 813 2090 704 2019 563 1884 
C 320 1641 192 1352 192 1019 
C 192 359 723 -128 1446 -128 
C 2278 -128 2970 526 2970 1320 
C 2970 1833 2733 2109 2003 2442 
C 2586 2840 2790 3109 2790 3493 
C 2790 4044 2336 4416 1658 4416 
C 896 4416 339 3929 339 3257 
C 339 2821 512 2577 1075 2211 
z
M 1818 1891 
C 2221 1711 2464 1397 2464 1052 
C 2464 513 2061 90 1542 90 
C 998 90 646 475 646 1071 
C 646 1538 832 1833 1306 2122 
L 1818 1891 
z
M 1427 2712 
C 1024 2910 819 3167 819 3487 
C 819 3910 1126 4198 1581 4198 
C 2048 4198 2355 3891 2355 3422 
C 2355 3058 2195 2808 1779 2538 
L 1427 2712 
z
" transform="scale(0.015625)"/>
       </defs>
       <use xlink:href="#URWPalladioL-Roma-30" transform="scale(0.996264)"/>
       <use xlink:href="#URWPalladioL-Roma-2e" transform="translate(49.8132 0)scale(0.996264)"/>
       <use xlink:href="#URWPalladioL-Roma-38" transform="translate(74.719801 0)scale(0.996264)"/>
      </g>
     </g>
    </g>
    <g id="xtick_6">
     <g id="line2d_6">
      <g>
       <use xlink:href="#m19781b0f37" x="414.72" y="307.584" style="stroke: #000000; stroke-width: 0.8"/>
      </g>
     </g>
     <g id="text_6">
      <!-- $\mathdefault{1.0}$ -->
      <g transform="translate(408.49335 321.712237)scale(0.1 -0.1)">
       <defs>
        <path id="URWPalladioL-Roma-31" d="M 429 3584 
L 493 3584 
L 1318 3956 
C 1325 3962 1331 3962 1338 3962 
C 1376 3962 1389 3905 1389 3751 
L 1389 613 
C 1389 276 1318 205 973 205 
L 614 205 
L 614 0 
C 1600 0 1600 0 1670 0 
C 1754 0 1894 0 2112 0 
C 2189 0 2413 0 2675 0 
L 2675 205 
L 2342 205 
C 1990 205 1926 276 1926 612 
L 1926 4443 
L 1837 4475 
C 1421 4257 966 4065 384 3860 
L 429 3584 
z
" transform="scale(0.015625)"/>
       </defs>
       <use xlink:href="#URWPalladioL-Roma-31" transform="scale(0.996264)"/>
       <use xlink:href="#URWPalladioL-Roma-2e" transform="translate(49.8132 0)scale(0.996264)"/>
       <use xlink:href="#URWPalladioL-Roma-30" transform="translate(74.719801 0)scale(0.996264)"/>
      </g>
     </g>
    </g>
    <g id="text_7">
     <!-- Input $x$ -->
     <g transform="translate(220.078004 335.649886)scale(0.1 -0.1)">
      <defs>
       <path id="URWPalladioL-Roma-49" d="M 1382 3663 
C 1382 4172 1414 4224 1709 4224 
L 2016 4224 
L 2016 4423 
C 1549 4423 1408 4423 1075 4423 
C 755 4423 602 4423 141 4423 
L 141 4224 
L 448 4224 
C 742 4224 774 4172 774 3663 
L 774 766 
C 774 256 742 205 448 205 
L 141 205 
L 141 0 
C 518 0 742 0 1075 0 
C 1408 0 1638 0 2016 0 
L 2016 205 
L 1709 205 
C 1414 205 1382 256 1382 766 
L 1382 3663 
z
" transform="scale(0.015625)"/>
       <path id="URWPalladioL-Roma-6e" d="M 2624 -7 
C 3014 -7 3021 -7 3130 -7 
C 3219 -7 3219 -7 3661 -7 
L 3661 179 
L 3398 205 
C 3181 205 3162 244 3162 654 
L 3162 1892 
C 3162 2642 2810 3008 2093 3008 
C 1856 3008 1722 2963 1587 2847 
L 1101 2424 
L 1101 2982 
L 1043 3008 
C 717 2873 384 2783 45 2745 
L 45 2565 
L 282 2565 
C 538 2565 563 2520 563 2094 
L 563 643 
C 563 237 544 192 326 192 
L 38 192 
L 38 -7 
C 474 -7 646 -7 832 -7 
C 1018 -7 1190 -7 1626 -7 
L 1626 192 
L 1338 192 
C 1120 192 1101 237 1101 643 
L 1101 2011 
C 1101 2300 1523 2616 1914 2616 
C 2342 2616 2624 2297 2624 1806 
L 2624 -7 
z
" transform="scale(0.015625)"/>
       <path id="URWPalladioL-Roma-70" d="M 64 2565 
L 301 2565 
C 557 2565 582 2520 582 2095 
L 582 -1142 
C 582 -1548 563 -1593 346 -1593 
L 51 -1593 
L 51 -1792 
C 691 -1792 691 -1792 851 -1792 
C 1011 -1792 1011 -1792 1651 -1792 
L 1651 -1593 
L 1357 -1593 
C 1139 -1593 1120 -1547 1120 -1138 
L 1120 89 
C 1312 -26 1517 -71 1805 -71 
C 1990 -71 2157 -32 2259 32 
L 2989 505 
C 3245 672 3546 1330 3546 1740 
C 3546 2451 2957 3008 2214 3008 
C 1978 3008 1747 2943 1645 2847 
L 1120 2367 
L 1120 2982 
L 1062 3008 
C 736 2873 403 2783 64 2745 
L 64 2565 
z
M 1120 1964 
C 1120 2053 1152 2124 1235 2233 
C 1421 2469 1683 2591 2003 2591 
C 2605 2591 2989 2169 2989 1504 
C 2989 787 2560 256 1984 256 
C 1632 256 1370 372 1120 633 
L 1120 1964 
z
" transform="scale(0.015625)"/>
       <path id="URWPalladioL-Roma-75" d="M 3219 3009 
L 3162 3035 
C 2835 2900 2502 2810 2163 2772 
L 2163 2592 
L 2400 2592 
C 2656 2592 2682 2547 2682 2121 
L 2682 1070 
C 2682 928 2592 747 2445 599 
C 2266 418 2061 327 1811 327 
C 1587 327 1408 398 1306 521 
C 1216 624 1171 824 1171 1107 
L 1171 3009 
L 1114 3035 
C 787 2900 454 2810 115 2772 
L 115 2592 
L 352 2592 
C 608 2592 634 2547 634 2122 
L 634 1039 
C 634 587 672 387 787 227 
C 928 33 1171 -64 1536 -64 
C 1824 -64 2080 26 2253 186 
L 2682 585 
C 2682 401 2675 298 2656 0 
C 3085 0 3091 0 3187 0 
C 3277 0 3277 0 3718 0 
L 3718 186 
L 3456 212 
C 3238 212 3219 251 3219 664 
L 3219 3009 
z
" transform="scale(0.015625)"/>
       <path id="URWPalladioL-Roma-74" d="M 627 2476 
L 627 619 
C 627 142 838 -64 1331 -64 
C 1478 -64 1632 -32 1670 13 
L 1978 353 
L 1894 463 
C 1734 372 1638 340 1517 340 
C 1267 340 1165 470 1165 788 
L 1165 2489 
L 1984 2489 
L 2042 2816 
L 1165 2816 
L 1165 3056 
C 1165 3321 1184 3547 1235 3951 
L 1158 4021 
C 1005 3925 813 3842 614 3778 
C 634 3585 640 3463 640 3271 
L 640 2822 
L 141 2598 
L 141 2476 
L 627 2476 
z
" transform="scale(0.015625)"/>
       <path id="URWPalladioL-Ital-78" d="M 134 566 
C 134 438 122 357 83 153 
C 70 77 64 58 58 13 
C 154 -39 256 -64 333 -64 
C 544 -64 794 121 992 419 
L 1478 1164 
L 1549 725 
C 1632 184 1779 -64 2010 -64 
C 2150 -64 2355 44 2560 229 
L 2874 509 
L 2816 630 
C 2586 439 2426 344 2323 344 
C 2227 344 2144 408 2080 534 
C 2022 655 1952 890 1920 1075 
L 1805 1716 
L 2029 2028 
C 2330 2441 2502 2587 2701 2587 
C 2803 2587 2880 2536 2912 2441 
L 3002 2466 
L 3098 3008 
C 3021 3053 2963 3072 2906 3072 
C 2650 3072 2394 2842 1997 2257 
L 1760 1907 
L 1722 2212 
C 1645 2842 1472 3072 1094 3072 
C 928 3072 787 3021 730 2938 
L 358 2409 
L 467 2346 
C 659 2562 787 2651 909 2651 
C 1120 2651 1261 2391 1370 1767 
L 1440 1373 
L 1184 977 
C 909 549 691 344 512 344 
C 416 344 346 371 333 403 
L 262 585 
L 134 566 
z
" transform="scale(0.015625)"/>
      </defs>
      <use xlink:href="#URWPalladioL-Roma-49" transform="scale(0.996264)"/>
      <use xlink:href="#URWPalladioL-Roma-6e" transform="translate(33.574079 0)scale(0.996264)"/>
      <use xlink:href="#URWPalladioL-Roma-70" transform="translate(91.55614 0)scale(0.996264)"/>
      <use xlink:href="#URWPalladioL-Roma-75" transform="translate(151.430533 0)scale(0.996264)"/>
      <use xlink:href="#URWPalladioL-Roma-74" transform="translate(211.504268 0)scale(0.996264)"/>
      <use xlink:href="#URWPalladioL-Ital-78" transform="translate(271.826932 0)scale(0.996264)"/>
     </g>
    </g>
   </g>
   <g id="matplotlib.axis_2">
    <g id="ytick_1">
     <g id="line2d_7">
      <defs>
       <path id="md33f60248b" d="M 0 0 
L -3.5 0 
" style="stroke: #000000; stroke-width: 0.8"/>
      </defs>
      <g>
       <use xlink:href="#md33f60248b" x="57.6" y="274.620274" style="stroke: #000000; stroke-width: 0.8"/>
      </g>
     </g>
     <g id="text_8">
      <!-- $\mathdefault{−7.5}$ -->
      <g transform="translate(29.952529 278.184392)scale(0.1 -0.1)">
       <defs>
        <path id="CMSY10-0" d="M 4218 1472 
C 4326 1472 4442 1472 4442 1600 
C 4442 1728 4326 1728 4218 1728 
L 755 1728 
C 646 1728 531 1728 531 1600 
C 531 1472 646 1472 755 1472 
L 4218 1472 
z
" transform="scale(0.015625)"/>
        <path id="URWPalladioL-Roma-37" d="M 358 32 
L 416 -51 
C 666 -32 666 -32 710 -32 
C 755 -32 755 -32 1005 -51 
C 1274 649 1587 1317 2010 2087 
L 3181 4199 
L 3181 4372 
C 2490 4372 2266 4372 1747 4372 
C 1280 4372 966 4372 346 4372 
L 282 4359 
C 301 3750 301 3750 301 3685 
C 301 3614 301 3614 282 3031 
L 474 3031 
L 518 3390 
C 570 3789 614 3840 909 3840 
L 2618 3840 
C 2362 3313 2163 2941 1920 2549 
L 358 32 
z
" transform="scale(0.015625)"/>
        <path id="URWPalladioL-Roma-35" d="M 813 3877 
C 1638 3877 1997 3877 2765 3877 
L 2797 3907 
C 2784 4016 2784 4064 2784 4144 
C 2784 4229 2784 4277 2797 4386 
L 2765 4416 
C 2285 4416 1997 4416 1651 4416 
C 1299 4416 1018 4416 538 4416 
L 506 4403 
C 512 4011 518 3729 518 3523 
C 518 2977 499 2360 480 2077 
L 608 2038 
C 909 2341 1082 2432 1395 2432 
C 2010 2432 2394 1993 2394 1296 
C 2394 580 1984 160 1286 160 
C 941 160 621 277 531 444 
L 237 973 
L 83 883 
C 230 516 307 310 397 27 
C 576 -71 832 -128 1107 -128 
C 1536 -128 1990 59 2342 368 
C 2733 716 2938 1154 2938 1630 
C 2938 2359 2419 2874 1690 2874 
C 1382 2874 1152 2791 755 2554 
L 813 3877 
z
" transform="scale(0.015625)"/>
       </defs>
       <use xlink:href="#CMSY10-0" transform="scale(1.038107)"/>
       <use xlink:href="#URWPalladioL-Roma-37" transform="translate(81.941696 0)scale(0.996264)"/>
       <use xlink:href="#URWPalladioL-Roma-2e" transform="translate(131.754897 0)scale(0.996264)"/>
       <use xlink:href="#URWPalladioL-Roma-35" transform="translate(156.661497 0)scale(0.996264)"/>
      </g>
     </g>
    </g>
    <g id="ytick_2">
     <g id="line2d_8">
      <g>
       <use xlink:href="#md33f60248b" x="57.6" y="239.109801" style="stroke: #000000; stroke-width: 0.8"/>
      </g>
     </g>
     <g id="text_9">
      <!-- $\mathdefault{−5.0}$ -->
      <g transform="translate(29.952529 242.673919)scale(0.1 -0.1)">
       <use xlink:href="#CMSY10-0" transform="scale(1.038107)"/>
       <use xlink:href="#URWPalladioL-Roma-35" transform="translate(81.941696 0)scale(0.996264)"/>
       <use xlink:href="#URWPalladioL-Roma-2e" transform="translate(131.754897 0)scale(0.996264)"/>
       <use xlink:href="#URWPalladioL-Roma-30" transform="translate(156.661497 0)scale(0.996264)"/>
      </g>
     </g>
    </g>
    <g id="ytick_3">
     <g id="line2d_9">
      <g>
       <use xlink:href="#md33f60248b" x="57.6" y="203.599328" style="stroke: #000000; stroke-width: 0.8"/>
      </g>
     </g>
     <g id="text_10">
      <!-- $\mathdefault{−2.5}$ -->
      <g transform="translate(29.952529 207.163447)scale(0.1 -0.1)">
       <use xlink:href="#CMSY10-0" transform="scale(1.038107)"/>
       <use xlink:href="#URWPalladioL-Roma-32" transform="translate(81.941696 0)scale(0.996264)"/>
       <use xlink:href="#URWPalladioL-Roma-2e" transform="translate(131.754897 0)scale(0.996264)"/>
       <use xlink:href="#URWPalladioL-Roma-35" transform="translate(156.661497 0)scale(0.996264)"/>
      </g>
     </g>
    </g>
    <g id="ytick_4">
     <g id="line2d_10">
      <g>
       <use xlink:href="#md33f60248b" x="57.6" y="168.088855" style="stroke: #000000; stroke-width: 0.8"/>
      </g>
     </g>
     <g id="text_11">
      <!-- $\mathdefault{0.0}$ -->
      <g transform="translate(38.1467 171.652974)scale(0.1 -0.1)">
       <use xlink:href="#URWPalladioL-Roma-30" transform="scale(0.996264)"/>
       <use xlink:href="#URWPalladioL-Roma-2e" transform="translate(49.8132 0)scale(0.996264)"/>
       <use xlink:href="#URWPalladioL-Roma-30" transform="translate(74.719801 0)scale(0.996264)"/>
      </g>
     </g>
    </g>
    <g id="ytick_5">
     <g id="line2d_11">
      <g>
       <use xlink:href="#md33f60248b" x="57.6" y="132.578382" style="stroke: #000000; stroke-width: 0.8"/>
      </g>
     </g>
     <g id="text_12">
      <!-- $\mathdefault{2.5}$ -->
      <g transform="translate(38.1467 136.142501)scale(0.1 -0.1)">
       <use xlink:href="#URWPalladioL-Roma-32" transform="scale(0.996264)"/>
       <use xlink:href="#URWPalladioL-Roma-2e" transform="translate(49.8132 0)scale(0.996264)"/>
       <use xlink:href="#URWPalladioL-Roma-35" transform="translate(74.719801 0)scale(0.996264)"/>
      </g>
     </g>
    </g>
    <g id="ytick_6">
     <g id="line2d_12">
      <g>
       <use xlink:href="#md33f60248b" x="57.6" y="97.067909" style="stroke: #000000; stroke-width: 0.8"/>
      </g>
     </g>
     <g id="text_13">
      <!-- $\mathdefault{5.0}$ -->
      <g transform="translate(38.1467 100.632028)scale(0.1 -0.1)">
       <use xlink:href="#URWPalladioL-Roma-35" transform="scale(0.996264)"/>
       <use xlink:href="#URWPalladioL-Roma-2e" transform="translate(49.8132 0)scale(0.996264)"/>
       <use xlink:href="#URWPalladioL-Roma-30" transform="translate(74.719801 0)scale(0.996264)"/>
      </g>
     </g>
    </g>
    <g id="ytick_7">
     <g id="line2d_13">
      <g>
       <use xlink:href="#md33f60248b" x="57.6" y="61.557436" style="stroke: #000000; stroke-width: 0.8"/>
      </g>
     </g>
     <g id="text_14">
      <!-- $\mathdefault{7.5}$ -->
      <g transform="translate(38.1467 65.121555)scale(0.1 -0.1)">
       <use xlink:href="#URWPalladioL-Roma-37" transform="scale(0.996264)"/>
       <use xlink:href="#URWPalladioL-Roma-2e" transform="translate(49.8132 0)scale(0.996264)"/>
       <use xlink:href="#URWPalladioL-Roma-35" transform="translate(74.719801 0)scale(0.996264)"/>
      </g>
     </g>
    </g>
    <g id="text_15">
     <!-- Output $f(x)$ -->
     <g transform="translate(23.143118 201.734235)rotate(-90)scale(0.1 -0.1)">
      <defs>
       <path id="URWPalladioL-Roma-4f" d="M 2573 4544 
C 1114 4544 141 3596 141 2186 
C 141 839 1075 -128 2368 -128 
C 3802 -128 4890 942 4890 2351 
C 4890 3698 3994 4544 2573 4544 
z
M 2464 4274 
C 3558 4274 4205 3493 4205 2160 
C 4205 890 3616 141 2624 141 
C 1549 141 826 1051 826 2422 
C 826 3607 1414 4274 2464 4274 
z
" transform="scale(0.015625)"/>
       <path id="URWPalladioL-Ital-66" d="M 1830 2472 
C 1856 2593 1901 2740 1939 2829 
L 1914 2873 
L 1869 2861 
C 1715 2822 1645 2816 1331 2816 
L 1229 2816 
L 1363 3530 
C 1466 4078 1645 4320 1939 4320 
C 2131 4320 2304 4224 2400 4071 
L 2464 4096 
C 2496 4198 2560 4397 2611 4525 
L 2643 4621 
C 2541 4666 2342 4704 2195 4704 
C 2125 4704 2022 4685 1971 4660 
C 1818 4590 1293 4201 1146 4047 
C 1005 3907 928 3716 858 3352 
L 762 2848 
C 499 2720 371 2669 211 2612 
L 179 2472 
L 698 2472 
L 640 2115 
C 448 872 211 -313 70 -753 
C -45 -1129 -237 -1326 -467 -1326 
C -614 -1326 -685 -1282 -800 -1141 
L -890 -1166 
C -915 -1313 -1005 -1620 -1037 -1677 
C -979 -1709 -883 -1728 -813 -1728 
C -550 -1728 -205 -1530 45 -1231 
C 435 -772 576 -326 1043 1911 
C 1062 1988 1114 2230 1165 2472 
L 1830 2472 
z
" transform="scale(0.015625)"/>
       <path id="CMR10-28" d="M 2118 -1536 
C 2118 -1517 2118 -1504 2010 -1395 
C 1210 -584 1005 632 1005 1616 
C 1005 2735 1248 3855 2035 4658 
C 2118 4735 2118 4748 2118 4767 
C 2118 4812 2093 4832 2054 4832 
C 1990 4832 1414 4395 1037 3577 
C 710 2870 634 2156 634 1616 
C 634 1114 704 336 1056 -391 
C 1440 -1182 1990 -1600 2054 -1600 
C 2093 -1600 2118 -1581 2118 -1536 
z
" transform="scale(0.015625)"/>
       <path id="CMR10-29" d="M 1850 1616 
C 1850 2118 1779 2896 1427 3622 
C 1043 4414 493 4832 429 4832 
C 390 4832 365 4806 365 4767 
C 365 4748 365 4735 486 4620 
C 1114 3983 1478 2960 1478 1616 
C 1478 516 1242 -617 448 -1427 
C 365 -1504 365 -1517 365 -1536 
C 365 -1575 390 -1600 429 -1600 
C 493 -1600 1069 -1163 1446 -346 
C 1773 362 1850 1075 1850 1616 
z
" transform="scale(0.015625)"/>
      </defs>
      <use xlink:href="#URWPalladioL-Roma-4f" transform="scale(0.996264)"/>
      <use xlink:href="#URWPalladioL-Roma-75" transform="translate(78.306281 0)scale(0.996264)"/>
      <use xlink:href="#URWPalladioL-Roma-74" transform="translate(138.380016 0)scale(0.996264)"/>
      <use xlink:href="#URWPalladioL-Roma-70" transform="translate(170.857104 0)scale(0.996264)"/>
      <use xlink:href="#URWPalladioL-Roma-75" transform="translate(230.731498 0)scale(0.996264)"/>
      <use xlink:href="#URWPalladioL-Roma-74" transform="translate(290.805232 0)scale(0.996264)"/>
      <use xlink:href="#URWPalladioL-Ital-66" transform="translate(362.385667 0)scale(0.996264)"/>
      <use xlink:href="#CMR10-28" transform="translate(406.021988 0)scale(1.038107)"/>
      <use xlink:href="#URWPalladioL-Ital-78" transform="translate(450.455369 0)scale(0.996264)"/>
      <use xlink:href="#CMR10-29" transform="translate(503.754506 0)scale(1.038107)"/>
     </g>
    </g>
   </g>
   <g id="line2d_14">
    <defs>
     <path id="meb5d44ff6f" d="M 0 3 
C 0.795609 3 1.55874 2.683901 2.12132 2.12132 
C 2.683901 1.55874 3 0.795609 3 0 
C 3 -0.795609 2.683901 -1.55874 2.12132 -2.12132 
C 1.55874 -2.683901 0.795609 -3 0 -3 
C -0.795609 -3 -1.55874 -2.683901 -2.12132 -2.12132 
C -2.683901 -1.55874 -3 -0.795609 -3 0 
C -3 0.795609 -2.683901 1.55874 -2.12132 2.12132 
C -1.55874 2.683901 -0.795609 3 0 3 
z
" style="stroke: #ff0000"/>
    </defs>
    <g clip-path="url(#p1747d691d3)">
     <use xlink:href="#meb5d44ff6f" x="213.302499" y="168.141911" style="fill: #ff0000; stroke: #ff0000"/>
     <use xlink:href="#meb5d44ff6f" x="253.895464" y="154.026698" style="fill: #ff0000; stroke: #ff0000"/>
     <use xlink:href="#meb5d44ff6f" x="213.062333" y="168.150646" style="fill: #ff0000; stroke: #ff0000"/>
     <use xlink:href="#meb5d44ff6f" x="207.721749" y="168.221041" style="fill: #ff0000; stroke: #ff0000"/>
     <use xlink:href="#meb5d44ff6f" x="175.569171" y="167.946968" style="fill: #ff0000; stroke: #ff0000"/>
     <use xlink:href="#meb5d44ff6f" x="130.68412" y="167.946954" style="fill: #ff0000; stroke: #ff0000"/>
     <use xlink:href="#meb5d44ff6f" x="278.754048" y="153.99635" style="fill: #ff0000; stroke: #ff0000"/>
     <use xlink:href="#meb5d44ff6f" x="164.612677" y="168.22987" style="fill: #ff0000; stroke: #ff0000"/>
     <use xlink:href="#meb5d44ff6f" x="152.889356" y="167.946844" style="fill: #ff0000; stroke: #ff0000"/>
     <use xlink:href="#meb5d44ff6f" x="279.419314" y="153.978163" style="fill: #ff0000; stroke: #ff0000"/>
     <use xlink:href="#meb5d44ff6f" x="246.567225" y="153.817458" style="fill: #ff0000; stroke: #ff0000"/>
     <use xlink:href="#meb5d44ff6f" x="105.66119" y="167.978333" style="fill: #ff0000; stroke: #ff0000"/>
     <use xlink:href="#meb5d44ff6f" x="241.009019" y="153.758575" style="fill: #ff0000; stroke: #ff0000"/>
     <use xlink:href="#meb5d44ff6f" x="123.467165" y="168.144896" style="fill: #ff0000; stroke: #ff0000"/>
     <use xlink:href="#meb5d44ff6f" x="338.058888" y="153.883771" style="fill: #ff0000; stroke: #ff0000"/>
     <use xlink:href="#meb5d44ff6f" x="362.571657" y="153.961857" style="fill: #ff0000; stroke: #ff0000"/>
     <use xlink:href="#meb5d44ff6f" x="234.101859" y="168.194796" style="fill: #ff0000; stroke: #ff0000"/>
     <use xlink:href="#meb5d44ff6f" x="359.924038" y="153.861076" style="fill: #ff0000; stroke: #ff0000"/>
    </g>
   </g>
   <g id="line2d_15">
    <path d="M 57.6 168.088855 
L 62.983719 167.947097 
L 68.367437 168.070932 
L 73.751156 168.228347 
L 79.134874 168.124414 
L 86.313166 167.949269 
L 93.491457 168.172018 
L 98.875176 168.209033 
L 109.642613 167.960083 
L 122.204623 168.186618 
L 131.177487 167.949176 
L 138.355779 168.171608 
L 143.739497 168.209302 
L 154.506935 167.959871 
L 167.068945 168.186984 
L 176.041809 167.949085 
L 183.220101 168.171197 
L 188.603819 168.209569 
L 199.371256 167.95966 
L 211.933266 168.187349 
L 220.906131 167.948996 
L 228.084422 168.170785 
L 233.468141 168.209834 
L 235.262714 168.15903 
L 237.057286 153.886687 
L 242.441005 153.74305 
L 247.824724 153.86474 
L 253.208442 154.023762 
L 258.592161 153.922178 
L 265.770452 153.74472 
L 272.948744 153.966182 
L 278.332462 154.005909 
L 289.099899 153.755054 
L 301.66191 153.983885 
L 310.634774 153.744634 
L 317.813065 153.965768 
L 323.196784 154.006172 
L 333.964221 153.754848 
L 346.526231 153.984246 
L 355.499095 153.74455 
L 362.677387 153.965353 
L 368.061106 154.006432 
L 378.828543 153.754644 
L 391.390553 153.984606 
L 400.363417 153.744468 
L 407.541709 153.964936 
L 412.925427 154.006692 
L 414.72 153.956591 
L 414.72 153.956591 
" clip-path="url(#p1747d691d3)" style="fill: none; stroke-dasharray: 5.55,2.4; stroke-dashoffset: 0; stroke: #000000; stroke-width: 1.5"/>
   </g>
   <g id="line2d_16">
    <path d="M 57.6 168.20894 
L 70.16201 168.108291 
L 80.929447 167.971276 
L 109.642613 168.019987 
L 132.97206 168.03454 
L 149.123216 168.033158 
L 208.344121 168.200926 
L 211.933266 168.225712 
L 213.727839 168.098684 
L 215.522412 167.742794 
L 217.316985 167.015464 
L 219.111558 165.810289 
L 220.906131 164.148144 
L 222.700704 162.744132 
L 224.495276 164.134694 
L 226.289849 173.407255 
L 228.084422 185.807546 
L 229.878995 186.356866 
L 231.673568 179.367479 
L 233.468141 170.896129 
L 235.262714 164.006287 
L 237.057286 159.519145 
L 238.851859 156.326548 
L 240.646432 154.030131 
L 242.441005 153.410301 
L 251.413869 153.989535 
L 267.565025 153.994386 
L 289.099899 154.045705 
L 308.840201 154.95171 
L 324.991357 154.454001 
L 332.169648 153.992159 
L 337.553367 153.918547 
L 368.061106 153.989763 
L 400.363417 154.255371 
L 414.72 154.296352 
L 414.72 154.296352 
" clip-path="url(#p1747d691d3)" style="fill: none; stroke: #ff7f0e; stroke-width: 1.5; stroke-linecap: square"/>
   </g>
   <g id="patch_3">
    <path d="M 57.6 307.584 
L 57.6 41.472 
" style="fill: none; stroke: #000000; stroke-width: 0.8; stroke-linejoin: miter; stroke-linecap: square"/>
   </g>
   <g id="patch_4">
    <path d="M 414.72 307.584 
L 414.72 41.472 
" style="fill: none; stroke: #000000; stroke-width: 0.8; stroke-linejoin: miter; stroke-linecap: square"/>
   </g>
   <g id="patch_5">
    <path d="M 57.6 307.584 
L 414.72 307.584 
" style="fill: none; stroke: #000000; stroke-width: 0.8; stroke-linejoin: miter; stroke-linecap: square"/>
   </g>
   <g id="patch_6">
    <path d="M 57.6 41.472 
L 414.72 41.472 
" style="fill: none; stroke: #000000; stroke-width: 0.8; stroke-linejoin: miter; stroke-linecap: square"/>
   </g>
   <g id="text_16">
    <!-- numpyro BNN(n_warmup = 1000,n_samples = 1000, n_chains = 4) -->
    <g transform="translate(62.97862 35.472)scale(0.12 -0.12)">
     <defs>
      <path id="URWPalladioL-Roma-6d" d="M 115 2565 
L 352 2565 
C 608 2565 634 2520 634 2094 
L 634 643 
C 634 237 614 192 397 192 
L 102 192 
L 102 -7 
C 717 -7 736 -7 915 -7 
C 1094 -7 1261 -7 1677 -7 
L 1677 179 
L 1408 205 
C 1190 205 1171 250 1171 654 
L 1171 2014 
C 1171 2302 1594 2616 1978 2616 
C 2323 2616 2560 2287 2560 1798 
L 2560 643 
C 2560 237 2541 192 2323 192 
L 2029 192 
L 2029 -7 
C 2669 -7 2669 -7 2829 -7 
C 2989 -7 2989 -7 3629 -7 
L 3629 192 
L 3334 192 
C 3117 192 3098 237 3098 643 
L 3098 2011 
C 3098 2300 3520 2616 3904 2616 
C 4250 2616 4486 2291 4486 1806 
L 4486 -7 
C 4877 -7 4883 -7 4992 -7 
C 5075 -7 5075 -7 5562 -7 
L 5562 192 
L 5261 192 
C 5043 192 5024 237 5024 643 
L 5024 1970 
C 5024 2608 4653 3008 4064 3008 
C 3840 3008 3654 2950 3539 2847 
L 3053 2412 
C 2848 2834 2586 3008 2144 3008 
C 1907 3008 1728 2950 1613 2847 
L 1171 2437 
L 1171 2982 
L 1114 3008 
C 787 2873 454 2783 115 2745 
L 115 2565 
z
" transform="scale(0.015625)"/>
      <path id="URWPalladioL-Roma-79" d="M 1901 564 
C 1760 808 1690 956 1574 1270 
L 1165 2347 
C 1126 2456 1101 2552 1101 2618 
C 1101 2710 1171 2764 1318 2764 
L 1562 2764 
L 1562 2944 
C 941 2944 941 2944 819 2944 
C 698 2944 698 2944 77 2944 
L 77 2777 
L 192 2764 
C 352 2745 429 2674 525 2451 
L 1222 775 
C 1402 340 1466 186 1581 -134 
L 1434 -524 
C 1229 -1062 979 -1362 736 -1362 
C 634 -1362 518 -1311 410 -1215 
L 326 -1215 
L 173 -1696 
C 294 -1760 397 -1792 518 -1792 
C 947 -1792 1222 -1562 1466 -1005 
L 2765 1990 
C 3021 2572 3142 2745 3302 2764 
L 3482 2777 
L 3482 2944 
C 2976 2944 2976 2944 2874 2944 
C 2771 2944 2771 2944 2266 2944 
L 2266 2777 
L 2432 2764 
C 2611 2751 2701 2694 2701 2604 
C 2701 2559 2688 2501 2662 2437 
L 1901 564 
z
" transform="scale(0.015625)"/>
      <path id="URWPalladioL-Roma-72" d="M 147 2565 
L 384 2565 
C 640 2565 666 2520 666 2094 
L 666 643 
C 666 237 646 192 429 192 
L 134 192 
L 134 -7 
C 595 -7 762 -7 922 -7 
C 1050 -7 1050 -7 1837 -7 
L 1837 192 
L 1504 192 
C 1216 192 1203 211 1203 638 
L 1203 1751 
C 1203 2139 1459 2463 1773 2463 
C 1965 2463 2099 2373 2202 2169 
L 2336 2169 
L 2394 2937 
C 2323 2982 2208 3008 2093 3008 
C 1901 3008 1696 2905 1562 2745 
L 1203 2322 
L 1203 2982 
L 1146 3008 
C 819 2873 486 2783 147 2745 
L 147 2565 
z
" transform="scale(0.015625)"/>
      <path id="URWPalladioL-Roma-6f" d="M 1786 3008 
C 851 3008 205 2347 205 1392 
C 205 487 774 -128 1600 -128 
C 2586 -128 3290 558 3290 1520 
C 3290 2386 2662 3008 1786 3008 
z
M 1670 2796 
C 2259 2796 2694 2155 2694 1283 
C 2694 545 2368 83 1850 83 
C 1222 83 800 699 800 1610 
C 800 2379 1107 2796 1670 2796 
z
" transform="scale(0.015625)"/>
      <path id="URWPalladioL-Roma-42" d="M 2163 4416 
C 1274 4416 1274 4416 1178 4416 
C 1056 4416 1056 4416 166 4416 
L 166 4236 
L 397 4217 
C 698 4191 723 4146 723 3643 
L 723 619 
C 723 384 672 243 582 205 
L 416 141 
L 416 0 
C 858 0 992 0 1114 0 
C 1184 0 1254 0 1331 0 
C 1843 0 1843 0 1907 0 
C 2374 0 2797 114 3085 324 
C 3462 590 3686 1022 3686 1467 
C 3686 1791 3558 2051 3315 2223 
C 3072 2401 2854 2458 2362 2496 
C 2675 2559 2822 2617 3002 2738 
C 3309 2947 3469 3221 3469 3552 
C 3469 4111 3066 4416 2323 4416 
L 2163 4416 
z
M 1331 2323 
C 1581 2323 1638 2323 1760 2323 
C 2624 2323 3027 2013 3027 1335 
C 3027 662 2586 263 1824 263 
C 1638 263 1491 276 1331 314 
L 1331 2323 
z
M 1331 4121 
C 1498 4159 1645 4172 1850 4172 
C 2534 4172 2835 3942 2835 3414 
C 2835 2859 2451 2560 1722 2560 
C 1613 2560 1530 2560 1331 2560 
L 1331 4121 
z
" transform="scale(0.015625)"/>
      <path id="URWPalladioL-Roma-4e" d="M 877 4423 
C 518 4423 461 4423 109 4423 
L 109 4224 
L 390 4224 
C 685 4224 717 4166 717 3663 
L 717 766 
C 717 262 685 205 390 205 
L 109 205 
L 109 0 
C 742 0 742 0 851 0 
C 947 0 947 0 1619 0 
L 1619 205 
L 1338 205 
C 1043 205 1011 262 1011 764 
L 1011 3738 
L 4038 -13 
L 4614 -115 
C 4614 -90 4614 -83 4608 -38 
C 4602 32 4595 84 4595 122 
L 4595 3665 
C 4595 4166 4627 4224 4922 4224 
L 5203 4224 
L 5203 4423 
C 4531 4423 4531 4423 4435 4423 
C 4326 4423 4326 4423 3693 4423 
L 3693 4224 
L 3974 4224 
C 4269 4224 4301 4166 4301 3665 
L 4301 639 
L 1222 4423 
L 877 4423 
z
" transform="scale(0.015625)"/>
      <path id="URWPalladioL-Roma-28" d="M 1926 -1244 
C 1466 -673 1299 -366 1133 212 
C 998 673 934 1161 934 1706 
C 934 2238 998 2693 1120 3110 
C 1286 3642 1459 3944 1926 4489 
L 1805 4656 
C 1139 4059 877 3707 634 3078 
C 467 2648 384 2193 384 1706 
C 384 1020 544 372 851 -205 
C 1075 -635 1280 -885 1805 -1379 
L 1926 -1244 
z
" transform="scale(0.015625)"/>
      <path id="URWPalladioL-Roma-77" d="M 2643 3008 
C 2118 1788 2022 1571 1626 677 
L 1088 2444 
C 1069 2502 1062 2553 1062 2604 
C 1062 2700 1146 2752 1306 2752 
L 1562 2752 
L 1562 2932 
C 928 2932 928 2932 800 2932 
C 672 2932 672 2932 38 2932 
L 38 2765 
L 218 2752 
C 397 2739 480 2612 640 2114 
L 1293 -32 
L 1594 -32 
L 2221 1437 
C 2253 1514 2323 1667 2426 1884 
L 2554 2152 
L 3424 -32 
L 3718 -32 
C 3763 102 3814 249 3866 389 
C 3994 767 4134 1162 4160 1201 
L 4595 2196 
C 4787 2625 4864 2733 5005 2752 
L 5171 2765 
L 5171 2932 
C 4646 2932 4646 2932 4544 2932 
C 4442 2932 4442 2932 3917 2932 
L 3917 2752 
L 4134 2752 
C 4294 2752 4384 2675 4384 2559 
C 4384 2489 4371 2412 4339 2329 
L 4019 1433 
C 3968 1292 3917 1163 3712 638 
L 2976 2490 
C 2886 2707 2842 2835 2790 3008 
L 2643 3008 
z
" transform="scale(0.015625)"/>
      <path id="URWPalladioL-Roma-61" d="M 2074 538 
L 2042 -1 
C 2458 -1 2458 -1 2541 -1 
C 2573 -1 2733 -1 3014 -1 
L 3014 192 
L 2765 192 
C 2611 192 2586 244 2586 558 
L 2586 1731 
C 2586 2668 2317 3008 1574 3008 
C 1299 3008 1043 2937 800 2791 
L 461 2585 
L 461 2171 
L 627 2126 
L 710 2323 
C 845 2623 909 2668 1203 2668 
C 1805 2668 2054 2431 2074 1852 
L 1440 1736 
C 570 1577 205 1277 205 722 
C 205 224 506 -64 1011 -64 
C 1126 -64 1235 -45 1280 -13 
L 2074 538 
z
M 2074 806 
C 1888 544 1485 302 1235 302 
C 979 302 755 538 755 812 
C 755 1048 883 1271 1075 1392 
C 1235 1488 1587 1577 2074 1648 
L 2074 806 
z
" transform="scale(0.015625)"/>
      <path id="URWPalladioL-Roma-3d" d="M 3552 2496 
L 326 2496 
L 326 2137 
L 3552 2137 
L 3552 2496 
z
M 3552 1255 
L 326 1255 
L 326 896 
L 3552 896 
L 3552 1255 
z
" transform="scale(0.015625)"/>
      <path id="URWPalladioL-Roma-2c" d="M 1306 789 
C 1133 731 1018 693 678 596 
C 634 109 474 -308 102 -923 
L 192 -994 
L 454 -872 
C 973 -199 1216 205 1395 699 
L 1306 789 
z
" transform="scale(0.015625)"/>
      <path id="URWPalladioL-Roma-73" d="M 262 917 
C 262 475 243 282 192 26 
C 525 -83 774 -128 1069 -128 
C 1907 -128 2502 321 2502 949 
C 2502 1148 2445 1295 2323 1424 
C 2157 1584 1946 1661 1382 1770 
C 858 1873 685 2001 685 2296 
C 685 2616 909 2796 1299 2796 
C 1728 2796 2054 2572 2054 2270 
L 2054 2123 
L 2234 2123 
C 2240 2495 2246 2648 2266 2847 
C 1926 2963 1696 3008 1434 3008 
C 691 3008 237 2655 237 2078 
C 237 1770 378 1552 672 1417 
C 845 1340 1184 1238 1619 1141 
C 1907 1077 2029 943 2029 699 
C 2029 353 1709 109 1254 109 
C 787 109 454 333 454 654 
L 454 917 
L 262 917 
z
" transform="scale(0.015625)"/>
      <path id="URWPalladioL-Roma-6c" d="M 147 4256 
L 506 4256 
C 621 4256 666 4185 666 3992 
L 666 651 
C 666 244 646 199 429 199 
L 134 199 
L 134 0 
C 774 0 774 0 934 0 
C 1094 0 1094 0 1734 0 
L 1734 199 
L 1440 199 
C 1222 199 1203 244 1203 650 
L 1203 4621 
L 1146 4673 
C 864 4564 653 4512 147 4435 
L 147 4256 
z
" transform="scale(0.015625)"/>
      <path id="URWPalladioL-Roma-65" d="M 2797 447 
L 2714 511 
C 2304 269 2157 212 1882 212 
C 1466 212 1120 398 941 711 
C 819 921 774 1101 762 1472 
L 1696 1472 
C 2138 1472 2413 1472 2854 1544 
C 2861 1634 2867 1693 2867 1771 
C 2867 2520 2394 3008 1677 3008 
C 1440 3008 1165 2924 902 2770 
C 378 2469 166 2071 166 1404 
C 166 1000 262 654 435 410 
C 691 71 1120 -128 1600 -128 
C 1837 -128 2074 -77 2336 37 
C 2509 108 2643 191 2669 230 
L 2797 447 
z
M 2298 1690 
C 1965 1690 1811 1690 1581 1690 
C 1286 1690 1120 1690 774 1722 
C 774 2027 800 2169 883 2337 
C 1018 2622 1293 2796 1600 2796 
C 1811 2796 1978 2711 2093 2534 
C 2234 2319 2278 2129 2298 1690 
z
" transform="scale(0.015625)"/>
      <path id="URWPalladioL-Roma-63" d="M 2554 1994 
C 2554 2289 2586 2552 2643 2783 
C 2387 2937 2163 3008 1901 3008 
C 1594 3008 1235 2886 851 2642 
C 403 2360 166 1911 166 1347 
C 166 481 774 -128 1632 -128 
C 1965 -128 2445 -6 2509 90 
L 2643 295 
L 2579 391 
C 2342 263 2138 205 1907 205 
C 1197 205 730 757 730 1603 
C 730 2289 1050 2674 1626 2674 
C 1907 2674 2214 2546 2330 2386 
L 2374 1994 
L 2554 1994 
z
" transform="scale(0.015625)"/>
      <path id="URWPalladioL-Roma-68" d="M 45 4248 
L 403 4248 
C 518 4248 563 4177 563 3984 
L 563 643 
C 563 237 544 192 326 192 
L 38 192 
L 38 -7 
C 474 -7 646 -7 832 -7 
C 1018 -7 1190 -7 1626 -7 
L 1626 192 
L 1338 192 
C 1120 192 1101 237 1101 643 
L 1101 2011 
C 1101 2300 1523 2616 1914 2616 
C 2342 2616 2624 2297 2624 1806 
L 2624 -7 
C 3014 -7 3021 -7 3130 -7 
C 3219 -7 3219 -7 3661 -7 
L 3661 179 
L 3398 205 
C 3181 205 3162 244 3162 654 
L 3162 1892 
C 3162 2642 2810 3008 2093 3008 
C 1856 3008 1722 2963 1587 2847 
L 1101 2424 
L 1101 4613 
L 1043 4665 
C 762 4556 550 4504 45 4427 
L 45 4248 
z
" transform="scale(0.015625)"/>
      <path id="URWPalladioL-Roma-69" d="M 1203 2993 
L 1146 3019 
C 819 2884 486 2793 147 2755 
L 147 2576 
L 384 2576 
C 640 2576 666 2531 666 2105 
L 666 651 
C 666 244 646 199 429 199 
L 134 199 
L 134 0 
C 774 0 774 0 934 0 
C 1094 0 1094 0 1734 0 
L 1734 199 
L 1440 199 
C 1222 199 1203 244 1203 651 
L 1203 2993 
z
M 909 4416 
C 717 4416 550 4249 550 4056 
C 550 3870 717 3704 902 3704 
C 1088 3704 1261 3870 1261 4056 
C 1261 4236 1088 4416 909 4416 
z
" transform="scale(0.015625)"/>
      <path id="URWPalladioL-Roma-29" d="M 326 -1379 
C 768 -962 954 -750 1152 -436 
C 1542 186 1747 930 1747 1699 
C 1747 2193 1664 2648 1498 3078 
C 1254 3700 992 4053 326 4656 
L 205 4489 
C 672 3937 845 3636 1005 3110 
C 1133 2693 1197 2238 1197 1706 
C 1197 1161 1133 673 998 212 
C 832 -366 666 -673 205 -1244 
L 326 -1379 
z
" transform="scale(0.015625)"/>
     </defs>
     <use xlink:href="#URWPalladioL-Roma-6e" transform="scale(0.996264)"/>
     <use xlink:href="#URWPalladioL-Roma-75" transform="translate(57.982061 0)scale(0.996264)"/>
     <use xlink:href="#URWPalladioL-Roma-6d" transform="translate(118.055795 0)scale(0.996264)"/>
     <use xlink:href="#URWPalladioL-Roma-70" transform="translate(206.02547 0)scale(0.996264)"/>
     <use xlink:href="#URWPalladioL-Roma-79" transform="translate(265.899863 0)scale(0.996264)"/>
     <use xlink:href="#URWPalladioL-Roma-72" transform="translate(321.29154 0)scale(0.996264)"/>
     <use xlink:href="#URWPalladioL-Roma-6f" transform="translate(358.850858 0)scale(0.996264)"/>
     <use xlink:href="#URWPalladioL-Roma-42" transform="translate(438.153038 0)scale(0.996264)"/>
     <use xlink:href="#URWPalladioL-Roma-4e" transform="translate(499.024669 0)scale(0.996264)"/>
     <use xlink:href="#URWPalladioL-Roma-4e" transform="translate(581.813576 0)scale(0.996264)"/>
     <use xlink:href="#URWPalladioL-Roma-28" transform="translate(664.602483 0)scale(0.996264)"/>
     <use xlink:href="#URWPalladioL-Roma-6e" transform="translate(697.777712 0)scale(0.996264)"/>
     <use xlink:href="#URWPalladioL-Roma-77" transform="translate(791.625338 0)scale(0.996264)"/>
     <use xlink:href="#URWPalladioL-Roma-61" transform="translate(874.713431 0)scale(0.996264)"/>
     <use xlink:href="#URWPalladioL-Roma-72" transform="translate(924.526632 0)scale(0.996264)"/>
     <use xlink:href="#URWPalladioL-Roma-6d" transform="translate(963.878528 0)scale(0.996264)"/>
     <use xlink:href="#URWPalladioL-Roma-75" transform="translate(1051.848202 0)scale(0.996264)"/>
     <use xlink:href="#URWPalladioL-Roma-70" transform="translate(1111.921937 0)scale(0.996264)"/>
     <use xlink:href="#URWPalladioL-Roma-3d" transform="translate(1196.702931 0)scale(0.996264)"/>
     <use xlink:href="#URWPalladioL-Roma-31" transform="translate(1281.982543 0)scale(0.996264)"/>
     <use xlink:href="#URWPalladioL-Roma-30" transform="translate(1331.795744 0)scale(0.996264)"/>
     <use xlink:href="#URWPalladioL-Roma-30" transform="translate(1381.608944 0)scale(0.996264)"/>
     <use xlink:href="#URWPalladioL-Roma-30" transform="translate(1431.422145 0)scale(0.996264)"/>
     <use xlink:href="#URWPalladioL-Roma-2c" transform="translate(1481.235345 0)scale(0.996264)"/>
     <use xlink:href="#URWPalladioL-Roma-6e" transform="translate(1506.141946 0)scale(0.996264)"/>
     <use xlink:href="#URWPalladioL-Roma-73" transform="translate(1599.989572 0)scale(0.996264)"/>
     <use xlink:href="#URWPalladioL-Roma-61" transform="translate(1642.231038 0)scale(0.996264)"/>
     <use xlink:href="#URWPalladioL-Roma-6d" transform="translate(1692.044238 0)scale(0.996264)"/>
     <use xlink:href="#URWPalladioL-Roma-70" transform="translate(1780.013913 0)scale(0.996264)"/>
     <use xlink:href="#URWPalladioL-Roma-6c" transform="translate(1839.888306 0)scale(0.996264)"/>
     <use xlink:href="#URWPalladioL-Roma-65" transform="translate(1868.878668 0)scale(0.996264)"/>
     <use xlink:href="#URWPalladioL-Roma-73" transform="translate(1916.598963 0)scale(0.996264)"/>
     <use xlink:href="#URWPalladioL-Roma-3d" transform="translate(1983.74703 0)scale(0.996264)"/>
     <use xlink:href="#URWPalladioL-Roma-31" transform="translate(2069.026642 0)scale(0.996264)"/>
     <use xlink:href="#URWPalladioL-Roma-30" transform="translate(2118.839843 0)scale(0.996264)"/>
     <use xlink:href="#URWPalladioL-Roma-30" transform="translate(2168.653043 0)scale(0.996264)"/>
     <use xlink:href="#URWPalladioL-Roma-30" transform="translate(2218.466244 0)scale(0.996264)"/>
     <use xlink:href="#URWPalladioL-Roma-2c" transform="translate(2268.279444 0)scale(0.996264)"/>
     <use xlink:href="#URWPalladioL-Roma-6e" transform="translate(2318.092645 0)scale(0.996264)"/>
     <use xlink:href="#URWPalladioL-Roma-63" transform="translate(2411.94027 0)scale(0.996264)"/>
     <use xlink:href="#URWPalladioL-Roma-68" transform="translate(2456.173839 0)scale(0.996264)"/>
     <use xlink:href="#URWPalladioL-Roma-61" transform="translate(2514.1559 0)scale(0.996264)"/>
     <use xlink:href="#URWPalladioL-Roma-69" transform="translate(2563.9691 0)scale(0.996264)"/>
     <use xlink:href="#URWPalladioL-Roma-6e" transform="translate(2592.959462 0)scale(0.996264)"/>
     <use xlink:href="#URWPalladioL-Roma-73" transform="translate(2650.941522 0)scale(0.996264)"/>
     <use xlink:href="#URWPalladioL-Roma-3d" transform="translate(2718.089589 0)scale(0.996264)"/>
     <use xlink:href="#URWPalladioL-Roma-34" transform="translate(2803.369201 0)scale(0.996264)"/>
     <use xlink:href="#URWPalladioL-Roma-29" transform="translate(2853.182402 0)scale(0.996264)"/>
     <path d="M 761.737114 0 
L 791.625338 0 
L 791.625338 0.3985 
L 761.737114 0.3985 
L 761.737114 0 
z
"/>
     <path d="M 1570.101347 0 
L 1599.989572 0 
L 1599.989572 0.3985 
L 1570.101347 0.3985 
L 1570.101347 0 
z
"/>
     <path d="M 2382.052046 0 
L 2411.94027 0 
L 2411.94027 0.3985 
L 2382.052046 0.3985 
L 2382.052046 0 
z
"/>
    </g>
   </g>
  </g>
 </g>
 <defs>
  <clipPath id="p1747d691d3">
   <rect x="57.6" y="41.472" width="357.12" height="266.112"/>
  </clipPath>
 </defs>
</svg>
